<?xml version="1.0" encoding="UTF-8"?>
<svg xmlns="http://www.w3.org/2000/svg" viewBox="0 0 608.88 151.96">
  <defs>
    <style>
      .cls-1 {
        fill: #08b1bf;
      }
    </style>
  </defs>
  <path class="cls-1" d="m405.5,2.02c-.05-.47-.13-.83-.28-.93-.11.02-.2.11-.29.25.12.08.22.18.32.3.1.11.18.24.25.38Z"/>
  <path class="cls-1" d="m342.03,34.71c-.01.73.13,1.13.22,1.19-.02-.06-.03-.47-.22-1.19Z"/>
  <path class="cls-1" d="m20.14,104.3c-1.36-.85-3.12-1.58-5.28-2.18l-4.68-1.35c-2.14-.61-3.56-1.26-4.27-1.97-.71-.7-1.07-1.52-1.07-2.47,0-1.49.78-2.68,2.33-3.57s3.65-1.34,6.32-1.34c2.43,0,5.02.45,7.76,1.35l1.1-4.12c-3.23-.9-6.16-1.35-8.8-1.35-4.09,0-7.36.83-9.84,2.48s-3.71,3.9-3.71,6.72c0,1.3.27,2.47.8,3.52.53,1.05,1.31,1.95,2.34,2.7,1.03.75,2.14,1.33,3.33,1.71s3.06.97,5.59,1.74c3.14.96,5.14,1.89,5.99,2.78.85.89,1.27,1.9,1.27,3.03,0,1.68-.85,3.02-2.56,4.04-1.71,1.02-3.92,1.52-6.65,1.52-3.14,0-6.09-.65-8.83-1.95l-.94,4.24c2.62,1.22,5.94,1.82,9.96,1.82s7.37-.91,9.99-2.72,3.93-4.28,3.93-7.4c0-1.59-.34-2.99-1.02-4.2-.68-1.2-1.7-2.23-3.06-3.08Z"/>
  <path class="cls-1" d="m51,87.31c-4.23,0-7.68,1.54-10.35,4.63-2.67,3.09-4.01,7.23-4.01,12.43s1.49,9.51,4.46,12.63,6.89,4.68,11.75,4.68c3.85,0,7.23-.65,10.12-1.95l-.85-3.93c-3.16,1.07-6.23,1.6-9.21,1.6-3.12,0-5.76-1.2-7.9-3.61s-3.22-5.47-3.22-9.17h22.47v-1.54c0-4.78-1.27-8.6-3.8-11.47-2.53-2.87-5.69-4.3-9.46-4.3Zm-8.89,13.32c.19-2.7,1.12-4.89,2.78-6.57s3.77-2.51,6.3-2.51c1.97,0,3.75.88,5.34,2.63s2.39,3.9,2.39,6.46h-16.81Z"/>
  <path class="cls-1" d="m92.69,87.31c-3.9,0-7.6,1.87-11.12,5.59v-4.81h-4.9v32.74h4.9v-23.69c3.44-3.73,6.65-5.59,9.65-5.59,1.99,0,3.45.66,4.38,1.97.93,1.31,1.4,3.42,1.4,6.33v20.99h4.9v-22.4c0-7.42-3.07-11.12-9.21-11.12Z"/>
  <polygon class="cls-1" points="117.8 92.34 127.45 92.34 127.45 120.84 132.35 120.84 132.35 88.1 117.8 88.1 117.8 92.34"/>
  <path class="cls-1" d="m129.96,75.72c-.86,0-1.62.33-2.28,1-.66.67-.99,1.46-.99,2.36s.33,1.69.99,2.37,1.42,1.02,2.28,1.02c.94,0,1.73-.32,2.37-.97.64-.65.96-1.46.96-2.42s-.32-1.71-.97-2.37c-.65-.66-1.43-.99-2.36-.99Z"/>
  <path class="cls-1" d="m166.44,87.31c-4.5,0-8.09,1.57-10.75,4.7s-3.99,7.27-3.99,12.43,1.32,9.37,3.97,12.52c2.65,3.15,6.24,4.73,10.76,4.73s8.09-1.58,10.75-4.74c2.66-3.16,3.99-7.33,3.99-12.51s-1.33-9.27-3.99-12.41c-2.66-3.14-6.24-4.71-10.75-4.71Zm7.04,26.33c-1.72,2.51-4.06,3.77-7.04,3.77s-5.34-1.24-7.04-3.72-2.54-5.55-2.54-9.19c0-3.83.84-6.95,2.51-9.35,1.68-2.4,4.03-3.6,7.07-3.6s5.37,1.22,7.07,3.65,2.54,5.53,2.54,9.3-.86,6.63-2.58,9.14Z"/>
  <path class="cls-1" d="m197.4,111.72c-.26.16-.6.07-.75-.19s-.07-.6.19-.75c.64-.38,1.32-.81,2.04-1.26.64-.4,1.31-.82,2-1.24v-8.63c0-.19.58-1.05,1.74-2.59,1.16-1.54,2.43-2.72,3.82-3.55s2.8-1.24,4.24-1.24c1.57,0,3.44.47,5.59,1.41l1.98-4.71c-2.33-1.11-4.72-1.66-7.2-1.66-4.17,0-7.56,2.47-10.18,7.42v-6.63h-4.87v32.74h4.87v-11.26c-.49.3-.97.6-1.42.88-.72.45-1.41.88-2.05,1.26Z"/>
  <path class="cls-1" d="m500.46,74.25l-5.15-.03-.21,38.11c1.55.74,3.16,1.53,4.88,2.41.27.14.38.47.24.74-.14.27-.47.38-.74.24-1.54-.78-2.98-1.49-4.38-2.17l-.03,5.01,24.13.13.02-4.49-18.98-.11.22-39.84Z"/>
  <path class="cls-1" d="m542.15,74.48l-14.73,44.25,5.34.03,5.05-15.49,14.55.08,4.82,15.55,5.4.03-14.24-44.42-6.19-.03Zm-2.84,24.3l5.89-18.32,5.71,18.38-11.6-.07Z"/>
  <path class="cls-1" d="m589.01,94.76v-.13c2.46-.72,4.38-1.89,5.79-3.52,1.4-1.63,2.11-3.49,2.12-5.58.02-3.41-1.17-6.06-3.57-7.95-2.4-1.89-5.73-2.84-10.01-2.87l-12.29-.07-.25,44.33,12.6.07c4.11.02,7.62-1.15,10.56-3.52,2.93-2.37,4.41-5.57,4.44-9.59.01-2.74-.81-5.12-2.47-7.12-1.66-2-3.97-3.35-6.92-4.06Zm-12.83-15.59l6.35.04c3,.02,5.27.58,6.81,1.69,1.54,1.11,2.31,2.69,2.3,4.74-.02,4.5-3.19,6.74-9.5,6.7l-6.03-.03.07-13.13Zm13.78,33.1c-2.01,1.54-4.72,2.3-8.14,2.28l-5.84-.03.1-17.72,5.47.03c3.73.02,6.57.82,8.53,2.4,1.96,1.58,2.93,3.81,2.92,6.68-.02,2.7-1.03,4.83-3.04,6.36Z"/>
  <path class="cls-1" d="m604.52,62.72c0-1.41-1.05-2.15-2.55-2.15h-3.13v8.06h1.4v-3.44h1.2c1.14,0,1.51.36,1.51,1.36v.19c0,.94.03,1.55.15,1.89h1.38c-.08-.46-.11-1.15-.11-1.87v-.19c0-1.04-.31-1.67-1.12-1.97.66-.24,1.27-.76,1.27-1.88Zm-2.96,1.33h-1.31v-2.33h1.54c.76,0,1.31.33,1.31,1.12,0,.97-.67,1.21-1.54,1.21Z"/>
  <path class="cls-1" d="m601.56,57.85c-4.04,0-7.33,3.29-7.33,7.33s3.29,7.33,7.33,7.33,7.33-3.29,7.33-7.33-3.29-7.33-7.33-7.33Zm0,13.99c-3.67,0-6.67-2.99-6.67-6.66s2.99-6.67,6.67-6.67,6.66,2.99,6.66,6.67-2.99,6.66-6.66,6.66Z"/>
  <path class="cls-1" d="m246.97,103.14c-.06.02-.13.04-.2.04-.1,0-.2-.04-.28-.09.13,2.72.96,5.69,1.79,8.59,1.37,4.82,2.67,9.38.71,12.32-.07.1-.13.14-.24.16-.95.11-3.04-1.79-3.74-2.42-3.91-3.54-7.26-3.73-10.21-3.9-2.91-.17-5.43-.31-8.26-3.55-.06-.04-1.4-.99-2.64-.13-.48.33-.94,1.44-1.12,1.9-.11.28.03.6.32.71.28.11.6-.03.71-.31.24-.62.58-1.28.72-1.4.17-.12.36-.16.54-.16.42,0,.75.22.74.2,3.04,3.49,5.9,3.66,8.93,3.83,2.91.17,5.92.34,9.54,3.62,1.65,1.49,3.34,2.85,4.61,2.69.43-.05.78-.27,1.02-.64,2.24-3.36.87-8.15-.57-13.23-1.02-3.57-2.07-7.25-1.7-10.28.41-3.41,1.8-5.49,3.82-5.71,2.29-.24,4.8,2.02,5.95,5.38,1.62,4.72,1.43,13.32,1.3,19.01l-.04,1.99c-.02.88.03,1.88.07,2.93.17,3.91.38,8.77-2.59,10.66-1.76,1.13-7.89-2.99-10.84-4.97-.85-.57-1.57-1.05-2.06-1.34-.81-.48-1.7-1.06-2.63-1.67-3.64-2.38-7.77-5.09-11.38-4.74-4.46.42-7.02,3.38-9.5,7.7-.11.19-.22.32-.32.39l.32-1.34c1.58-6.42,3.54-14.42.98-20.36-1.18-2.73-2.9-4.47-5.13-5.17-4.43-1.39-10.1,1.6-14.73,4.42v1.29c4.55-2.8,10.23-5.97,14.4-4.66,1.93.61,3.39,2.1,4.45,4.56,2.41,5.61.5,13.4-1.04,19.66l-.46,1.87c-.04.16,0,.34.1.47.36.46.79.5,1,.49.7-.05,1.18-.77,1.36-1.07,2.37-4.13,4.65-6.77,8.65-7.15,3.24-.29,7.36,2.39,10.67,4.57.95.62,1.85,1.21,2.67,1.7.48.28,1.18.75,2.01,1.31,4.07,2.73,8.19,5.32,10.71,5.32.51,0,.96-.11,1.33-.34,3.51-2.23,3.28-7.45,3.1-11.64-.04-1.03-.09-2-.07-2.86l.04-1.99c.13-5.77.32-14.49-1.36-19.39-1.34-3.9-4.26-6.41-7.1-6.11-1.18.12-3.94,1-4.72,6.19.2.62.41,1.25.67,1.93.11.28-.03.6-.32.71Z"/>
  <path class="cls-1" d="m198.87,109.52c-.72.45-1.4.87-2.04,1.26-.26.16-.34.49-.19.75s.49.34.75.19c.64-.39,1.33-.81,2.05-1.26.46-.29.94-.58,1.42-.88v-1.29c-.69.42-1.36.84-2,1.24Z"/>
  <path class="cls-1" d="m254.02,57.16c.13-.27.46-.39.73-.26.08.04.15.06.23.1,1.91-3.41,2.09-8.93.03-12.51-1.71-2.97-4.9-4.42-7.76-3.52-2.05.65-4.13,2.75-3.78,6.71.26,2.96,3.1,8.25,6.33,9.22,1.06.32,2.61.31,4.06-1.5.1-.13.14-.29.11-.45-.03-.16-.13-.29-.27-.37-.38-.21-.69-.49-1.03-.77-.18-.15-.36-.31-.55-.46.04-.03.1-.07.19-.13.16-.1.26-.27.27-.46s-.09-.37-.25-.47c-.2-.13-.3-.26-.44-.44,1.09-.66,1.99-1.06,2-1.07.15-.07.26-.19.3-.35.04-.16.02-.32-.07-.46-.03-.04-2.84-4.21-4.15-6.3-.16-.26-.5-.33-.76-.18-.26.16-.34.5-.17.76,1.04,1.66,3.01,4.61,3.81,5.81-.5.25-1.26.66-2.08,1.19-.14.09-.23.24-.25.4-.02.16.04.33.15.45.13.13.22.25.31.37.06.08.12.16.2.25-.04.05-.1.09-.27.2-.17.1-.27.28-.27.48,0,.19.11.38.28.47.38.21.69.49,1.03.77.21.18.41.36.65.53-.75.73-1.57.95-2.47.68-2.73-.82-5.31-5.59-5.55-8.27-.25-2.81.88-4.89,3.01-5.56,1.93-.61,4.78.07,6.47,3.01,2.3,3.99,1.52,10.89-1.48,13.18-2.2,1.68-4.68.02-6.37-1.68-4.89-4.9-5.64-16.22-6.13-23.71l-.11-1.57c.91-.98,3.08-1.01,4.26-.86.05,0,.11,0,.16,0,.28-.05.93-.16,1-.72.07-.61-.55-.87-1.68-1.35-.56-.24-1.86-.79-1.98-1.08-.05-.57.32-1.35.47-1.59.04-.05.08-.11.1-.17,0,0,0,0,0,0,.13-.37.32-.8.51-1.23.63-1.43,1.28-2.9.3-3.49-.19-.11-.41-.14-.62-.07-.63.2-1.12,1.16-2.01,3.16-.04.08-.08.17-.12.26-.02-.21-.03-.42-.05-.61-.16-2.19-.27-3.12-.76-3.47-.13-.09-.43-.15-.59-.11-.58.15-.62.74-.67,3.19-.01.43-.02.96-.05,1.42-.15-.27-.29-.56-.42-.79-.84-1.63-1.34-2.62-2.13-2.31-.74.29-.52,1.32-.18,2.87.09.42.22,1.03.28,1.45-.29-.2-.67-.48-.96-.7-1.08-.82-1.84-1.36-2.42-1.43-.38-.05-.67.04-.86.27-.26.33-.13.72-.07.88.04.11.11.21.21.27,5.22,3.6,4.88,11.09,4.53,19.03-.27,5.96-.54,12.13,1.8,16.51,1.06,1.99,2.01,3.1,2.85,4.08,1.95,2.28,3.64,4.25,6.16,16.66.45,2.21-.23,3.83-1.02,5.7-1.36,3.21-3.05,7.2.25,15.84.05.12.13.21.23.27-.03-.72-.03-1.43.05-2.12.02-.17.05-.32.07-.47-2.2-6.87-.82-10.16.41-13.09.83-1.95,1.61-3.8,1.09-6.34-2.58-12.69-4.35-14.76-6.4-17.16-.84-.98-1.71-2-2.72-3.88-2.2-4.12-1.93-10.13-1.67-15.94.3-6.71.61-13.62-2.84-17.96.98.73,1.44,1.02,1.88.87.81-.27.56-1.4.22-2.97-.04-.16-.08-.35-.12-.54.14.25.27.51.38.72.71,1.39,1.05,2.01,1.55,2.1.17.02.43-.04.56-.15.22-.19.31-.49.36-1.32.1.9.24,1.26.66,1.35.57.13.79-.35,1.5-1.93.23-.5.57-1.27.87-1.84-.16.45-.39.98-.55,1.34-.2.44-.39.88-.53,1.27-.34.5-.71,1.55-.64,2.28.08.85,1.24,1.39,2.42,1.9-1.3,0-3.17.26-4.1,1.52-.08.1-.11.23-.11.36l.12,1.78c.5,7.65,1.26,19.22,6.45,24.42,3.82,3.83,6.54,2.76,7.82,1.77.41-.32.79-.71,1.13-1.16-.03-.02-.06-.02-.1-.04-.27-.13-.39-.46-.26-.73Z"/>
  <path class="cls-1" d="m246.49,103.09c.09.05.18.09.28.09.07,0,.13-.01.2-.04.28-.11.43-.43.32-.71-.26-.68-.47-1.31-.67-1.93-.02.16-.05.31-.07.47-.08.68-.09,1.39-.05,2.12Z"/>
  <path class="cls-1" d="m298.58,107.81s.02-.01.03-.02c-.06.02-.12.04-.19.04.05,0,.11,0,.16-.02Z"/>
  <path class="cls-1" d="m307.51,57.04c.37.14.7.24,1.03.33,1.05-.5,2.22-1.73,2.7-4.62.92-5.55-1.41-8.8-3.89-9.99-2.36-1.13-5.05-.65-6.7,1.19-1.25,1.39-3.54,5.5,1.56,14.01-.75.26-1.43.15-2.07-.32-4.35-3.27-5.39-21.87-3.49-30.41.28-1.26,2.22-2.03,3.49-2.54.43-.25,1.01-.58.85-1.14-.16-.55-.74-.53-1.7-.5-.71.02-2.19.07-2.46-.31-.17-.26-.19-1.32.74-4.89.24-.92.33-1.27-.17-1.44-.18-.06-.52-.09-.76.43-1.31,2.91-2.04,3.13-2.27,3.1-.68-.03-1.37-2.08-1.71-3.06-.39-1.15-.56-1.62-.96-1.79-.11-.05-.32-.06-.44-.03-.83.21-.58,1.24-.03,3.49.13.55.31,1.26.41,1.81-.25-.32-.53-.72-.74-1.02-.92-1.32-1.65-2.36-2.44-1.81-.64.44-.22,1.35.41,2.73.28.6.77,1.66.83,2.14-.3-.13-.8-.5-1.07-.69-.72-.53-1.2-.87-1.65-.54-.42.31-.23.87-.16,1.08.03.08.07.16.14.22.25.25.5.47.74.69.95.86,1.7,1.54,2.17,3.07,1.31,4.24,1.23,11.39,1.15,18.31-.08,7.25-.16,14.11,1.2,18.32,1.05,3.27,2.12,5.75,3.06,7.93,2.29,5.29,3.54,8.21,1.1,14.8l-.13.35c-.9,2.39-1.82,4.87-1.03,10.17.22,1.5,1.18,5.98,2.22,9.77.44.28.88.6,1.34,1,.1.08.15.2.17.32,0-.02,0-.04,0-.06-1.19-3.98-2.39-9.51-2.64-11.19-.76-5.02.12-7.36.97-9.63l.13-.35c2.6-7,1.2-10.24-1.12-15.62-.93-2.16-1.99-4.61-3.03-7.83-1.3-4.05-1.22-11.13-1.15-17.97.08-7,.16-14.24-1.2-18.64-.33-1.05-.78-1.78-1.29-2.38.29.06.56.03.8-.16.82-.63.19-1.99-.55-3.57h0c.04.06.09.12.13.18.87,1.24,1.5,2.13,2.23,2,.15-.03.36-.17.45-.3.22-.33.19-.87-.05-1.96.43.75.97,1.3,1.69,1.33.52.04,1.04-.23,1.56-.8-.3,1.54-.33,2.62.05,3.15.49.68,1.61.76,2.61.78-1.25.57-2.66,1.43-2.97,2.83-1.84,8.28-1.21,27.69,3.91,31.53,1.13.85,2.44.91,3.79.17.13-.07.23-.2.27-.34.04-.15.02-.3-.07-.43-3.56-5.71-4.31-10.66-2-13.23,1.32-1.48,3.5-1.85,5.41-.93,2.75,1.32,3.98,4.62,3.28,8.82-.36,2.19-1.19,3.55-2.4,3.93-1.1.34-2.51-.18-3.67-1.38-1.33-1.37-2.55-3.94-1.61-6.66.59-1.7,1.29-2.66,2.01-2.63.89.04,1.98,1.58,2.47,3.51.09.34.43,1.62.57,1.98.02.05.04.11.06.17-.31.03-.57.05-.64.05-.26-.01-.46.14-.53.36.02,0,.04.01.06.02.07.04.7.4,1.36-.22.22-.2.57-.19.78.03.19.2.17.5,0,.71.1-.05.2-.11.26-.22.09-.15.1-.34.02-.5,0,0-.21-.46-.33-.78-.1-.29-.44-1.49-.53-1.87-.54-2.11-1.83-4.27-3.49-4.34-1.24-.08-2.31,1.08-3.1,3.36-1.11,3.19.31,6.19,1.86,7.79,1.07,1.11,2.31,1.73,3.5,1.81-.03-.11-.04-.23,0-.35.11-.28.43-.43.71-.31Z"/>
  <path class="cls-1" d="m299.72,117.35c.1.55.18,1.01.26,1.9.42,4.39-2.71,8.84-8.81,12.52-4.27,2.58-12.47,1.21-15.94-1.67-.46-.38-.92-.8-1.39-1.25.24-.24.48-.51.69-.79,2.41-3.12.33-7.13-1.35-10.36-.38-.74-.75-1.45-1.05-2.11-.39-.88-.78-1.72-1.14-2.52-3.18-7-5.29-11.63-5.15-20.26.03-1.83.15-3.64.27-5.38.19-2.78.38-5.66.19-8.64-.12-1.93-.5-3.63-.87-5.28-.57-2.58-1.11-5.02-.61-8.03.07-.41,1.04-1.79,1.9-3.02,1.62-2.31,3.63-5.18,3.87-7.06.73-5.89-3.3-10.71-7.21-15.38-4.53-5.41-8.81-10.52-6.71-17.32.06-.19,0-.41-.14-.55-.16-.16-.38-.25-.6-.23-.52.02-.94.53-1.51,1.22,0,0,0,0,0,0-.38-3.37-1-3.83-1.66-3.78-.16.01-.4.08-.6.34-.23.3-.36.83-.43,1.47-.54-1.7-.92-2.58-1.44-2.85-.19-.1-.41-.12-.6-.06-.17.05-.4.19-.53.55-.23.62-.11,2.01.14,3.43-.66-1.14-1.12-1.72-1.59-1.85-.2-.06-.41-.03-.56.06-.59.31-.4.76.68,3.26.41.95.89,2.07,1.33,3.27-.17.3-1.35.52-1.86.62-.75.14-1.16.22-1.37.53-.08.12-.12.33-.09.48.2.97,1.6,1.34,2.96,1.7.42.11.81.21,1.12.32.49.18.87.31,1.16.39.3.09.57.29.77.56l1.69,2.34c3.55,4.88,5.69,7.82,8.78,13.76,1.16,2.21.84,6.36-1.31,8.59-1.51,1.56-3.59,1.8-6.04.71-.19.33-.39.65-.61.94,2.93,1.36,5.57,1.06,7.44-.88,2.3-2.38,3-6.99,1.5-9.86-3.14-6.01-5.3-8.98-8.87-13.9l-1.69-2.33c-.33-.46-.81-.81-1.33-.97-.27-.08-.64-.2-1.1-.37-.33-.12-.76-.24-1.22-.36-.42-.11-1.21-.32-1.71-.54.05-.01.1-.02.14-.03.98-.19,2.2-.42,2.61-1.17.12-.21.23-.57.05-1.02-.19-.49-.39-.98-.59-1.46.43.77.7,1.21.93,1.4.21.17.5.16.71-.01s.25-.47.11-.7c-.44-.74-1.17-4.21-1.22-5.8.31.74.67,1.95.92,2.77.42,1.4.69,2.28.97,2.69.15.21.43.3.67.2.24-.1.38-.36.33-.61-.29-1.45-.28-3.2-.14-4.08.19.6.42,1.77.56,3.63.02.21.16.4.36.47.2.08.43.02.58-.13.31-.31.6-.66.87-.98-1.26,6.64,3.08,11.83,7.29,16.86,3.93,4.69,7.63,9.12,6.96,14.54-.2,1.61-2.21,4.47-3.68,6.56-1.26,1.79-1.98,2.84-2.08,3.47-.54,3.22.02,5.76.62,8.45.36,1.61.73,3.27.84,5.11.18,2.91,0,5.62-.19,8.5-.12,1.76-.24,3.58-.27,5.44-.14,8.88,2.01,13.6,5.25,20.73.37.8.75,1.64,1.14,2.52.3.68.68,1.41,1.08,2.17,1.61,3.1,3.43,6.61,1.45,9.17-.19.25-.4.49-.61.7-.86-.84-1.72-1.75-2.57-2.64-3.02-3.15-5.62-5.87-7.63-5.96-1.21-.04-1.88.51-2.23.98-.98,1.34-.66,3.58-.36,4.39,1.16,3.19,3.99,5.58,7.19,6.08,2.04.31,3.97-.18,5.56-1.38.51.49,1.02.94,1.52,1.36,2.39,1.99,6.69,3.3,10.73,3.3,2.41,0,4.72-.47,6.48-1.53,6.48-3.92,9.8-8.74,9.34-13.57-.09-.94-.17-1.42-.28-1.99,0-.02,0-.05-.01-.07-.41-.25-.82-.51-1.24-.78.06.41.12.75.17,1.04Zm-32.1,12.53c-2.82-.44-5.3-2.55-6.33-5.37-.26-.72-.42-2.51.21-3.37.26-.36.65-.54,1.18-.54.04,0,.07,0,.11,0,1.57.07,4.27,2.89,6.89,5.62.83.87,1.68,1.76,2.53,2.6-1.32.95-2.9,1.32-4.59,1.06Z"/>
  <path class="cls-1" d="m254.75,56.9c-.27-.13-.6-.01-.73.26-.13.27-.01.6.26.73.03.02.06.02.1.04.22-.29.42-.6.61-.94-.08-.03-.15-.06-.23-.1Z"/>
  <path class="cls-1" d="m320.81,124.33s.02-.09.03-.14c-.61,1.63-1.89,1.74-3.55,1.87-3.16.25-7.09.57-8.51,10.52-.28,1.95-1.11,2.82-1.48,2.84-.07,0-.14-.14-.17-.24.26-4.41-.17-7.4-.56-10.05-.14-.95-.27-1.86-.36-2.79-.47-4.61.5-5.42.8-5.56.54-.24,1.49.3,2.55,1.44.21.22.55.23.78.03.22-.21.23-.55.03-.78-1.85-1.99-3.09-2.02-3.81-1.69-1.35.61-1.83,2.86-1.44,6.67.1.95.23,1.87.37,2.84.38,2.61.81,5.57.54,9.91,0,.05,0,.11.01.16.2.85.77,1.16,1.26,1.16.02,0,.04,0,.05,0,.96-.04,2.15-1.24,2.52-3.78,1.3-9.08,4.6-9.34,7.51-9.58,1.7-.14,3.44-.29,4.34-2.26-.14,0-.26,0-.37,0-.3-.01-.54-.26-.53-.57Z"/>
  <path class="cls-1" d="m321.38,123.8c.17,0,.41,0,.7-.04.19-.84.29-1.9.25-3.24-.07-2.34-.09-4.54-.11-6.64-.07-7.83-.13-14.59-2.86-23.21-3.91-12.34-3.7-22.74.71-35.9,1.88-5.62,1.27-11.27.57-17.82l-.13-1.22c-.67-6.33-.59-8.17,1.8-13.32,0-.01.01-.03.02-.04l.09-.19c1.51-3.16,1.54-3.99,1.07-4.42-.12-.1-.34-.18-.51-.16-.45.05-.81.5-1.63,1.69-.06.09-.14.19-.21.3-.21-.87-.41-1.81-.6-2.66-.54-2.5-.63-2.81-.85-3.02-.15-.15-.45-.21-.65-.13-.44.18-.58.54-.75,3.6-.96-3.39-1.14-3.77-1.79-3.65-.5.1-.74.14-.43,3.92-.54-1.17-1-1.76-1.55-1.82-.16-.02-.55,0-.84.44-.07.1-.1.22-.09.34.05.58.4,1.86.77,3.22.17.6.34,1.25.48,1.8-1.9-1.16-2.53-1.16-2.9-.77-.51.54.06,1.39.62,2.12,4.47,6.53,4.07,8.27,2.76,14.03-.36,1.58-.81,3.55-1.23,5.97-.3,1.71-.34,3.73-.38,5.67-.07,3.64-.15,7.4-1.93,8.59-.76.51-1.84.53-3.25.13-.16.08-.31.14-.46.18-.41.13-.85.17-1.29.14.05.16.15.3.32.36,2.3.91,4.03.94,5.29.1,2.26-1.51,2.34-5.38,2.42-9.49.04-1.91.08-3.88.36-5.51.42-2.39.84-4.26,1.22-5.91,1.36-5.95,1.81-7.96-2.94-14.92-.11-.14-.2-.27-.27-.38.42.2,1.1.59,2.16,1.29.18.12.4.12.58.02.18-.11.29-.31.27-.52-.05-.58-.4-1.86-.77-3.22-.15-.53-.3-1.1-.43-1.6.39.82.79,1.88.97,2.36.45,1.19.57,1.51,1.09,1.39.19-.04.49-.2.43-.77-.15-1.48-.25-2.62-.32-3.5.11.39.22.79.33,1.18l.56,1.97c.08.26.37.48.62.45.54-.06.54-.16.66-2.62.02-.41.05-.94.08-1.48.02.08.04.16.05.24.25,1.17.55,2.52.84,3.63.05.21.27.41.48.45.47.09.73-.28,1.41-1.25-.18.44-.43,1-.76,1.71-.04.09-.08.17-.11.24h0c-2.5,5.36-2.59,7.42-1.9,13.9l.13,1.22c.69,6.42,1.29,11.96-.52,17.35-4.08,12.17-4.61,22.04-1.69,33.17.54.31.99.66,1.32.98.22.21.22.56.01.78s-.56.22-.78.02c-.01-.01-.05-.04-.09-.09.17.57.33,1.15.52,1.73,2.68,8.46,2.74,15.15,2.81,22.88.02,2.11.04,4.31.11,6.66.05,1.61-.07,2.73-.34,3.51.09-.16.25-.27.49-.27Z"/>
  <path class="cls-1" d="m308.54,57.37c-.33-.09-.66-.19-1.03-.33-.28-.12-.6.03-.71.31-.05.12-.04.24,0,.35.44.03.88-.01,1.29-.14.15-.05.3-.11.46-.18Z"/>
  <path class="cls-1" d="m378.61,140.05c-.8,1.26-1.56,2.45-2.34,3.35.13-.39.32-.89.61-1.47.69-1.65.75-3.12.19-4.48-.9-2.18-3.32-3.85-6.82-5.55.16.14.24.37.17.59-.07.23-.29.38-.52.38-.05,0-.11,0-.17-.03-.08-.03-.15-.05-.23-.08,3.36,1.61,5.76,3.2,6.55,5.1.44,1.07.38,2.26-.17,3.6-.66,1.32-1.3,2.99-.57,3.5.13.09.26.13.4.13.48,0,.94-.5,1.17-.74.93-.99,1.81-2.38,2.66-3.72,1.33-2.1,2.71-4.25,4.23-4.94-.48-.13-.95-.26-1.43-.4-1.38,1.08-2.57,2.93-3.73,4.75Z"/>
  <path class="cls-1" d="m341,123.81c-9.49-1.19-15.18-.49-17.91-.16-.39.05-.72.09-1,.12-.1.43-.22.81-.37,1.13.39-.02.88-.08,1.5-.16,2.69-.33,8.28-1.01,17.64.16,9.21,1.15,15.31,2.23,21.2,4.67l.51.21c.54.22,1.06.44,1.58.65-1.24-.74-2.28-1.55-3.14-2.45-5.56-2.08-11.47-3.11-20.02-4.18Z"/>
  <path class="cls-1" d="m369.94,131.77c-1.57-.75-3.33-1.5-5.27-2.31,1.46.88,3.21,1.64,5.27,2.31Z"/>
  <path class="cls-1" d="m321.38,123.8c-.24,0-.4.11-.49.27-.02.04-.04.08-.05.13-.01.05-.03.09-.03.14,0,.3.23.56.53.57.11,0,.24,0,.37,0,.15-.32.27-.7.37-1.13-.29.03-.53.05-.7.04Z"/>
  <path class="cls-1" d="m373.05,95.5c.26.25.53.49.83.72,1.76-2.93,4.15-4.33,7.31-4.34.1-.34.21-.7.31-1.08-4.07-.08-6.7,1.9-8.45,4.7Z"/>
  <path class="cls-1" d="m384.59,106.62c-.51,1.52-1.67,3.55-2.9,5.69-2.12,3.7-4.31,7.52-4.19,10.32.1,2.22.63,3.7,1.61,4.53,1.35,1.14,3.29.9,5.33.63,2.09-.26,4.26-.54,6.16.49,1.31.71,2.35,1.78,3.36,2.82,1.66,1.71,3.38,3.49,5.77,2.1.15-.09.31-.21.49-.35.39-.3.79-.63,1.23-.59.54.03.91.18,1.17.49.83,1,.49,3.62.05,6.93-.41,3.12-.92,7-.66,11.16-.1.02-.21.02-.24,0,0,0-.03-.07.02-.26.02-.08.02-.17,0-.25-1.8-7.94-3.35-10.67-10.18-13.42-1.38-.56-3.76-1.21-6.53-1.98-5.42-1.5-12.85-3.55-14.38-5.51-3.19-4.09-1.09-16.22-.08-22.05.12-.69.23-1.31.31-1.82.56-3.47,1.35-6.24,2.41-8.36-.31-.23-.59-.47-.86-.72-1.42,2.72-2.16,6-2.63,8.91-.08.51-.19,1.12-.31,1.81-1.12,6.44-3.19,18.44.29,22.91,1.53,1.96,7.02,3.68,12.49,5.21.38-.29.76-.54,1.17-.7.29-.11.6.03.71.31.11.28-.03.6-.31.71-.05.02-.09.05-.14.07.35.1.69.19,1.04.29,2.73.75,5.09,1.4,6.41,1.94,6.38,2.57,7.78,4.99,9.49,12.52-.13.71.19,1.08.4,1.25.23.18.52.26.81.26.27,0,.53-.07.74-.18.33-.17.51-.46.49-.77-.29-4.14.22-8.04.64-11.18.49-3.72.84-6.41-.3-7.78-.45-.54-1.11-.84-1.96-.88-.87-.05-1.49.46-1.95.82-.13.1-.25.2-.36.26-1.58.92-2.6-.03-4.43-1.91-1.01-1.04-2.16-2.23-3.63-3.02-2.22-1.19-4.66-.88-6.82-.61-1.88.24-3.5.44-4.49-.39-.74-.62-1.14-1.85-1.22-3.74-.11-2.48,2.09-6.33,4.04-9.73,1.26-2.2,2.44-4.27,2.98-5.89,1.78-5.36,1.83-9.63.22-12.79-.39.02-.79.04-1.19.07,1.73,2.91,1.72,6.99-.07,12.37Z"/>
  <path class="cls-1" d="m383.24,91.01c-.08-.06-.17-.1-.27-.11-.14-.02-.26-.01-.39-.03-.09.36-.18.74-.28,1.07.13.01.25,0,.38.02.61.49,1.1,1.05,1.53,1.64.27-.23.57-.47.84-.69-.51-.7-1.09-1.35-1.81-1.91Z"/>
  <path class="cls-1" d="m384.22,93.61c.15.21.31.42.44.64.41-.02.8-.05,1.19-.07-.23-.44-.5-.86-.79-1.26-.27.22-.56.46-.84.69Z"/>
  <path class="cls-1" d="m384.22,134.92c-.11-.28-.43-.42-.71-.31-.41.16-.8.41-1.17.7.48.13.95.27,1.43.4.05-.02.09-.06.14-.07.28-.11.42-.43.31-.71Z"/>
  <path class="cls-1" d="m400.45,9.17c-.5-.77-1.46-2.26-1.7-2.87.36.27.93.8,1.34,1.19,1.37,1.3,2.27,2.09,3.04,2.09h.03c.72-.02,1.38-.63,1.9-1.78.12-.27.24-.58.34-.91,0,.18,0,.35,0,.5.01.27.22.49.49.52.28.03.52-.14.59-.41.42-1.56,1.09-2.73,1.53-3.21.04,1.14-.31,3.89-.91,5.94h1.14c.74-2.63,1.12-6.1.69-6.91-.09-.18-.39-.37-.59-.38h0c-.63,0-1.22.59-1.71,1.4.08-2.04,0-3.51-.69-4.09-.27-.23-.61-.3-.97-.23-.49.11-.85.48-1.12,1.05-.1.01-.2.03-.3.05-1.41.35-1.13,4.14-.63,7.27-.52-.26-1.5-1.18-2.06-1.71-1.3-1.22-2.08-1.95-2.74-1.53-.21.13-.35.34-.4.59-.18.83.6,2.13,1.82,4.02.09.15.2.31.3.46h1.29c-.18-.3-.39-.63-.67-1.06Zm3.66-2.3c.04-.89.13-2.93.42-4.34.46.9.27,3.14-.44,4.75,0-.13.01-.27.02-.42Z"/>
  <path class="cls-1" d="m406.33,12.13c-2.33,3.56-3.27,7.82-4.19,11.94l-.31,1.38c-1.7,7.5-3.45,13.75-9.12,20.12-.74.83-1.63,1.65-2.58,2.51-1.93,1.77-3.93,3.6-4.82,5.75-1.01,2.43-.66,5.77-.32,9.01.2,1.94.39,3.77.28,5.3-.17,2.35-.69,4.79-1.21,7.14-.44,2.01-.87,4.05-1.1,6.07.04-.28.27-.49.59-.47.3.03.52.29.5.58.22-1.94.65-3.92,1.09-5.95.52-2.4,1.06-4.87,1.23-7.3.11-1.62-.08-3.5-.29-5.49-.32-3.1-.65-6.3.25-8.47.8-1.93,2.7-3.67,4.54-5.36.97-.88,1.88-1.72,2.66-2.59,5.85-6.56,7.64-12.95,9.37-20.6l.31-1.38c.89-4.02,1.82-8.19,4.03-11.58.37-.56.71-1.47,1-2.5h-1.14c-.23.77-.49,1.45-.78,1.9Z"/>
  <path class="cls-1" d="m384.09,86.91c.2.23.17.58-.06.77-.22.19-.54.18-.75-.02-.01.06-.02.12-.04.18.39,1.56,1.05,3.09,2.13,4.57,0,0,0,0,0,0-.18-.24-.14-.58.1-.76.24-.19.59-.14.77.1,0,0,0,.01.01.02,0,0,0,0,0,0-2.12-2.92-2.56-6.05-2.31-9.32-.13,1.35-.27,2.64-.45,3.83.33.36.54.59.58.64Z"/>
  <path class="cls-1" d="m369.72,41.36c.2-.09.42-.06.57.07.02-.17.05-.33.07-.5.34-3.62,1.83-9.21,3.92-9.7,1.25-.3,2.62,1.42,3.55,2.92.8,1.28.45,4.15-.8,6.66-.79,1.59-1.77,2.69-2.72,3.06-.19-1.93-.11-2.56-.02-3.27.03-.27.07-.55.09-.89.08.01.17.03.25.04.29.06.7.14,1.2.15.22,0,.4-.1.5-.29.1-.18.09-.41-.03-.58-.4-.57-.85-2.19-1.21-3.49-.3-1.1-.57-2.05-.83-2.55-.14-.27-.47-.37-.74-.23-.27.14-.38.47-.23.74.21.4.48,1.38.74,2.34.28,1.01.57,2.05.88,2.84-.02,0-.05-.01-.07-.01-.43-.08-.84-.16-1.18.1-.3.23-.36.6-.38.85-.02.33-.05.59-.09.84-.1.82-.2,1.58.09,4.14.03.3.27.52.6.49,1.5-.14,3-1.52,4.13-3.79,1.19-2.39,1.93-5.83.75-7.73-1.65-2.66-3.21-3.76-4.74-3.41-3.15.74-4.51,7.95-4.76,10.67-.21,2.19-1.14,3.79-2.56,4.37-.98.4-2.06.23-2.89-.46-1.34-1.11-1.78-3.25-1.23-5.85,1.03-4.84,4.79-12.38,10.67-12.05,2.77.16,4.95,1.24,6.47,3.22,2.03,2.64,2.68,6.66,1.78,11.05-.38,1.87-1.01,3.26-1.42,4.18-.43.96-.67,1.48-.26,1.9.45.45,1.11.2,2.97-.6,2.43-1.04,8.02-6.13,9.73-8,7.93-8.66,9.36-16.81,9.11-27.15,0-.27-.19-.65-.51-1.19h-1.29c.34.53.67,1.07.71,1.22.25,10.07-1.14,17.99-8.82,26.38-1.62,1.76-7.1,6.76-9.36,7.73-.34.15-.99.43-1.46.59.06-.14.13-.29.19-.43.43-.97,1.09-2.43,1.5-4.41.96-4.7.24-9.05-1.99-11.94-1.7-2.21-4.22-3.47-7.27-3.64-.15,0-.3-.01-.45-.01-6.3,0-10.23,7.66-11.36,12.93-.64,3.02-.06,5.54,1.6,6.93,1.15.96,2.65,1.19,4.01.63,1.26-.52,2.2-1.62,2.75-3.11-.13-.33-.24-.65-.42-1.01-.13-.27-.02-.6.26-.73Z"/>
  <path class="cls-1" d="m369.5,132.78c-1.59-.76-3.4-1.53-5.35-2.34,1.5.89,3.28,1.67,5.35,2.34Z"/>
  <path class="cls-1" d="m369.94,131.77c.1.05.21.1.31.15-.05-.05-.12-.08-.19-.1-.04-.01-.08-.03-.12-.04Z"/>
  <path class="cls-1" d="m362.99,128.76c.57.24,1.13.47,1.67.69-2.16-1.3-3.7-2.83-4.6-4.63-2.17-4.32-.43-9.36,1.1-13.81.22-.63.43-1.25.63-1.85,3.44-10.57,6.73-24.48,1.64-38.38-.97-2.65-.51-5.31-.1-7.66.55-3.15,1.06-6.13-2.85-7.06-1.51-.37-3.62.8-6.05,2.16-2.66,1.49-5.68,3.17-7.56,2.37-5.95-2.53-7.88-11.03-7.16-18.33.09-.95,0-2.09-.3-3.59-.1-.53-.34-1.13-.61-1.71.05.09.1.18.15.27.11.2.34.3.57.27.23-.04.41-.21.45-.44.09-.46-.13-1.15-.51-2.34-.04-.13-.09-.29-.14-.45.26.74.51,1.53.65,1.97l.21.66c.09.28.37.43.66.36.28-.07.46-.34.41-.63-.03-.16-.06-.34-.11-.54.28.76.79.89,1.06.91.41.02.75-.17.94-.52.42-.8-.06-2.51-.72-3.92.2-.62.43-1.04.6-1.23.21.73.35,2.92.24,5.85,0,.19.14.49.3.6.46.3,1.09,0,2.47-.7.16-.08.35-.17.54-.27-.46.54-1.03,1.14-1.36,1.42-2.86,2.68-3.81,6.43-2.6,10.31,1.14,3.64,3.95,6.68,6.55,7.06,1.29.19,3.2-1.21,5.95-3.37,1.2-.94,2.44-1.92,3.07-2.16.76-.29,2.15.16,3.49.6,1.58.52,3.07,1,4.19.59,2.16-.79,4.49-1.88,5.33-3.96.62-1.52.38-3.38-.73-5.68-.04-.08-.09-.14-.16-.19-.09.6-.23,1.16-.41,1.68.58,1.53.7,2.78.29,3.78-.54,1.34-1.94,2.33-4.69,3.34-.77.28-2.14-.17-3.47-.61-1.6-.52-3.1-1.02-4.23-.58-.79.3-1.98,1.24-3.35,2.32-1.66,1.31-4.17,3.27-5.11,3.15-2.17-.32-4.66-3.09-5.66-6.3-.63-2.03-1.18-5.93,2.28-9.17.03-.03,2.84-2.51,2.32-3.43-.4-.7-1.27-.25-2.73.48-.35.18-.82.41-1.17.56.19-6.47-.68-6.51-1.16-6.54-.61.02-1.12.49-1.48,1.19-.12-.19-.24-.36-.35-.51-.19-.24-.76-.97-1.47-.78-.57.14-.75.71-.69,1.75-.25-.22-.51-.29-.82-.21-.21.06-.38.2-.49.4-.25.46-.11,1.18.22,2.25-.53-.49-.81-.38-.98-.32-.2.07-.35.21-.43.41-.2.48.08,1.09.67,2.31.37.77.8,1.65.93,2.3.28,1.4.37,2.43.28,3.27-.7,7.14.92,16.51,7.83,19.45,2.38,1.02,5.51-.73,8.53-2.42,2.04-1.14,4.14-2.32,5.26-2.05,2.79.67,2.62,2.36,2.02,5.81-.41,2.36-.92,5.3.15,8.23,4.98,13.58,1.73,27.26-1.65,37.66-.19.59-.4,1.2-.62,1.83-1.52,4.42-3.42,9.93-1.04,14.66.48.96,1.14,1.84,1.93,2.67.49.18.98.36,1.47.56l.51.21Zm-21.77-96.12c-.17.66-.27,1.32-.29,1.79-.02.33-.01.63.01.88l-.02-.07c-.22-1-.68-3.16-.64-4.02.23.23.58.72.93,1.42Z"/>
  <path class="cls-1" d="m369.89,132.88c.23,0,.45-.15.52-.38.07-.22,0-.45-.17-.59-.1-.05-.21-.1-.31-.15-2.06-.66-3.81-1.43-5.27-2.31-.55-.23-1.1-.46-1.67-.69l-.51-.21c-.49-.2-.98-.38-1.47-.56.86.89,1.9,1.71,3.14,2.45,1.95.81,3.76,1.58,5.35,2.34.08.03.15.05.23.08.05.02.11.03.17.03Z"/>
  <path class="cls-1" d="m369.72,41.36c-.27.13-.39.46-.26.73.17.36.29.68.42,1.01.19-.51.33-1.07.41-1.68-.16-.12-.38-.16-.57-.07Z"/>
  <path class="cls-1" d="m297.45,105.88c-2.18-1.4-4.11-1.48-5.85-1.54-1.99-.06-3.71-.12-5.52-2.21-.03-.04-.34-.38-.8-.62-.7-.36-1.4-.29-1.96.2-.28.24-.67,1.09-.95,1.76-.12.28.02.6.3.72.28.12.6-.01.72-.29.23-.55.56-1.24.66-1.36.51-.44,1.14.24,1.21.32,2.13,2.45,4.26,2.51,6.32,2.58,1.99.06,4.05.13,6.49,2.26,0,0,.01,0,.02,0-.08-.07-.15-.15-.19-.26-.15-.5-.3-1.03-.45-1.57Z"/>
  <path class="cls-1" d="m298.84,107.65s.02-.03.03-.05c-.02.03-.04.05-.06.08,0,0,.02-.01.03-.02Z"/>
  <path class="cls-1" d="m297.45,105.88c.15.54.3,1.07.45,1.57.03.11.1.2.19.26.1.08.21.13.34.13.06,0,.13-.02.19-.04.03-.01.06-.03.09-.05.04-.02.07-.05.1-.08.02-.02.04-.05.06-.08.02-.03.04-.06.06-.1.01-.03.02-.06.03-.1,0-.03.01-.07.01-.1,0-.04,0-.07,0-.11-.02-.12-.07-.23-.17-.32-.46-.4-.9-.71-1.34-1Z"/>
  <path class="cls-1" d="m307.83,94.74c-.02-.14-.04-.29-.07-.42,0,.01,0,.02,0,.03,0,.07.03.22.07.4Z"/>
  <path class="cls-1" d="m306.68,94.45c.75,4.17.94,10.12.87,14.29-.01.6.02,1.28.05,2,.12,2.75.26,5.86-1.68,7.09-1.09.7-5.36-2.16-7.18-3.38-.58-.39-1.07-.72-1.41-.92-.55-.33-1.15-.72-1.78-1.14-2.5-1.63-5.32-3.49-7.84-3.25-3.33.31-4.94,2.2-6.6,5.34-.14.27-.04.6.23.74.27.14.6.04.74-.23,1.77-3.36,3.17-4.51,5.73-4.76,2.15-.19,4.91,1.62,7.14,3.07.65.42,1.26.82,1.82,1.16.32.19.79.51,1.35.88.48.32.95.63,1.42.94-.01-.08-.02-.15-.04-.24-.04-.3.16-.58.46-.62.31-.05.58.16.62.47.07.5.14.86.19,1.18,1.85,1.13,3.51,1.94,4.71,1.94.38,0,.72-.08,1-.26,2.47-1.57,2.31-5.18,2.19-8.07-.03-.69-.06-1.35-.05-1.93.04-2.4,0-5.39-.19-8.3-.99-2.99-1.73-5.41-1.77-6.04,0,.01,0,.02,0,.03Z"/>
  <path class="cls-1" d="m299.97,115.44c-.3.04-.51.32-.46.62.01.09.02.16.04.24.42.27.84.53,1.24.78-.06-.32-.12-.68-.19-1.18-.04-.3-.32-.52-.62-.47Z"/>
  <path class="cls-1" d="m439.54,11.67c0,.3.24.55.54.56.3,0,.55-.24.56-.54h0c0-.54,0-1.01-.01-1.46h-1.29c.12.4.21.87.2,1.44Z"/>
  <path class="cls-1" d="m446.88,6c-.06-.05-.13-.08-.21-.1-.75-.17-1.37.67-2.19,2.51-.05-1.46-.26-2.84-.58-3.31-.2-.31-.47-.35-.61-.35-.84,0-1.37,1.31-1.71,2.8-.11-.26-.24-.48-.39-.63-.24-.24-.48-.29-.65-.29-.27,0-.51.1-.69.28-.29.3-.37.75-.38,1.43-.02-.02-.05-.03-.07-.05-.31-.19-.65-.2-.95-.04-.18.09-.29.28-.29.48,0,.52-.02,1.02-.05,1.5h1.09c0-.12.02-.23.03-.36.04.1.07.24.1.36h1.29c0-.25-.01-.51-.02-.74-.02-.61-.05-1.28-.05-1.59.18.38.39,1.21.48,2.33h1.23c.16-1.67.57-3.42.87-4.11.2.84.32,2.65.22,4.11h1.55c.34-.83.76-1.82,1.12-2.5-.1.59-.29,1.43-.57,2.5h1.13c.86-3.41.67-3.93.28-4.23Z"/>
  <path class="cls-1" d="m443.06,11.89s0,0,0,0c-.12.28.01.6.29.72.27.12.6-.01.72-.29t0,0c.13-.31.28-.69.44-1.11.1-.26.24-.61.39-.98h-1.55c-.05.67-.14,1.28-.3,1.66Z"/>
  <path class="cls-1" d="m441.09,11.56c0,.3.24.55.55.55h0c.3,0,.55-.24.55-.55h0c0-.42.03-.87.08-1.33h-1.23c.04.41.06.85.06,1.32Z"/>
  <path class="cls-1" d="m385.39,92.42s.07.1.11.14c.01,0,.02-.02.03-.03-.05-.03-.1-.07-.14-.12,0,0,0,0,0,0Z"/>
  <path class="cls-1" d="m431.23,25.77c-5.51,6.54-9.86,11.7-6.69,20.69.62,1.75,1.39,3.19,2.14,4.58,1.32,2.45,2.46,4.57,2.5,7.82.02,1.62.08,3.42.13,5.32.24,8.41.54,18.88-1.12,25.83-.83,3.47-2.36,6.76-3.83,9.94-2.49,5.35-5.05,10.88-4.34,17.39-2.31-1.25-4.44-.34-6.5.52-2.53,1.07-4.93,2.08-7.88-.72-4.55-4.31-9.05-10.79-13.4-17.05-2.1-3.02-4.08-5.87-5.97-8.32.15.22.12.5-.06.69.18.57.34,1.08.53,1.67-.02,0-.04,0-.07,0,1.49,2.02,3.04,4.25,4.66,6.58,4.38,6.31,8.91,12.83,13.55,17.22,3.47,3.29,6.44,2.04,9.07.93,2.3-.97,4.28-1.81,6.55.12,1.88,1.6,3.89,2.43,5.74,2.43.99,0,1.94-.24,2.8-.72,2.29-1.29,3.44-4.07,2.94-7.08-.17-1.05-.75-1.96-1.59-2.5-1.05-.68-2.82-1.25-5.24-.04-1.64.82-3.2,3.38-4.12,5.14-.34-5.76,1.94-10.65,4.33-15.81,1.5-3.23,3.05-6.57,3.91-10.14,1.69-7.09,1.39-17.64,1.15-26.12-.05-1.89-.1-3.68-.13-5.3-.05-3.52-1.31-5.86-2.64-8.33-.73-1.35-1.48-2.76-2.07-4.43-2.96-8.39,1-13.1,6.52-19.65,4.37-5.19,6.74-9.27,7.11-16.21h-1.09c-.36,6.63-2.57,10.4-6.89,15.54Zm-5.59,86.29c1.96-.97,3.34-.55,4.15-.02.57.37.98,1.03,1.1,1.76.42,2.54-.52,4.88-2.4,5.94-2.05,1.16-4.67.6-7.21-1.53.71-1.59,2.63-5.29,4.36-6.15Z"/>
  <path class="cls-1" d="m444.81,45.46c.05-.3.32-.49.63-.45.29.05.49.33.45.62,3-3.32,5.38-8.8,5.38-11,0-3.76-1.68-6.72-4.29-7.52-2.27-.7-4.71.46-6.52,3.11-2.07,3.04-1.52,6.5-1.03,9.54.45,2.8.87,5.44-.71,7.41-.83,1.03-1.85,1.36-3.04.95-2.53-.87-5.14-4.76-5.19-7.72-.06-3.89,1.69-7.16,4.33-10.86l1.21-1.71c4.14-5.84,6.22-8.78,11.22-13.06,1.23-1.15,1.63-1.81,1.43-2.35-.05-.14-.23-.48-.75-.51-.48-.04-1.25.25-1.96.65.25-.9.45-1.66.62-2.33h-1.13c-.25.96-.56,2.09-.94,3.43l-.1.35c-.08.27.06.56.33.66.26.1.56-.01.69-.27.22-.44,1.2-1.02,1.87-1.28-.17.2-.42.47-.79.82-5.08,4.36-7.18,7.33-11.38,13.24l-1.21,1.71c-2.39,3.36-4.59,7.08-4.53,11.52.05,3.4,2.99,7.73,5.93,8.74,1.63.56,3.13.09,4.25-1.3,1.88-2.35,1.4-5.36.93-8.27-.48-2.99-.97-6.07.85-8.75,1.55-2.26,3.47-3.25,5.29-2.68,2.11.65,3.52,3.25,3.51,6.47,0,1.98-2.73,8.28-6.03,11.2-.26.23-.51.28-.77.17-.45-.2-.81-.83-.83-1.47-.01-.48.15-1.38,1.38-2,.17-.08.28-.25.3-.43.02-.19-.06-.37-.2-.49l-1.25-.99,1.04-.86c.14-.11.21-.29.2-.47-.02-.18-.12-.34-.28-.43l-1.33-.74c.98-1.66,3.16-6.05,3.4-8.08.03-.3-.18-.57-.48-.61-.31-.01-.57.18-.61.48-.23,2.07-2.94,7.27-3.52,8.08-.09.13-.13.29-.09.44.03.15.13.29.27.36l1.13.63-.95.78c-.13.11-.2.26-.2.43,0,.16.08.32.21.42l1.17.93c-.85.65-1.32,1.56-1.29,2.57.03,1.07.64,2.08,1.49,2.45.64.28,1.32.15,1.89-.32-.07-.45-.08-.88-.02-1.22Z"/>
  <path class="cls-1" d="m386.21,92.46s-.04.05-.07.07c-.1.07-.21.1-.32.1-.1,0-.2-.04-.29-.1-.01,0-.02.02-.03.03.39.51.78,1.03,1.18,1.57.02,0,.04,0,.07,0-.19-.59-.35-1.11-.53-1.67Z"/>
  <path class="cls-1" d="m385.49,91.65c-.24.18-.28.52-.1.76.04.05.09.09.14.12.19-.15.36-.3.56-.46.04.14.08.25.12.38.18-.19.21-.47.06-.69,0,0,0-.01-.01-.02-.18-.24-.53-.29-.77-.1Z"/>
  <path class="cls-1" d="m385.53,92.53c.09.06.19.1.29.1.11,0,.23-.03.32-.1.03-.02.04-.05.07-.07-.04-.13-.08-.25-.12-.38-.2.16-.37.31-.56.46Z"/>
  <path class="cls-1" d="m457.43,8.95c-.27-.78-.61-1.5-1.22-1.5-.23,0-.45.09-.62.26-.4.41-.49,1.22-.5,2.52h1.1c0-.49.02-.97.07-1.31.13.33.28.79.42,1.31h1.13c-.2-.72-.37-1.27-.37-1.28Z"/>
  <path class="cls-1" d="m452.53,12.49c-.98-2.07-1.18-2.35-1.72-2.15-.53.18-.39.78-.31,1.14.11.5.23.96.33,1.39.33,1.36.63,2.54.43,2.98-.15.33-.89.58-1.43.76-.67.23-1.26.42-1.46.9-.07.16-.12.41.01.71.08.17.24.29.43.32,2.17.3,3.67,1.07,4.59,2.38,1.32,1.87,1.5,4.9.54,9.54l-.09.44c-1.11,5.39-2.76,13.46-7.55,16.89-.32-.59-.52-1.53-.42-2.13,0,0,0-.01,0-.02-.33.37-.67.71-1.01,1.02-.02.01-.03.02-.05.03.13.83.46,1.73.95,2.23.18.19.47.22.69.08,5.51-3.5,7.29-12.16,8.47-17.89l.09-.44c1.02-4.95.79-8.26-.72-10.39-.92-1.3-2.29-2.16-4.16-2.61.02,0,.03-.01.05-.01.78-.26,1.74-.58,2.09-1.36.18-.41.19-.92.09-1.58.51,1.05.56,1.06.88,1.08.17.02.4-.09.5-.26.06-.1.09-.21.08-.32-.01-.25-.04-.63-.08-1.08-.07-.85-.21-2.65-.21-3.9h-1.1c0,.58.03,1.31.09,2.25Z"/>
  <path class="cls-1" d="m455.09,10.27s0-.03-.01-.04h-1.16c.25.79.46,1.82.57,2.35.16.77.31,1.5.49,2.05.08.24.32.42.55.38.25-.01.46-.19.51-.43.19-.86.17-2.08.16-3.26,0-.32,0-.7,0-1.08h-1.1s0,.02,0,.04Z"/>
  <path class="cls-1" d="m453.35,8.05c-.17,0-.44.1-.55.22-.24.26-.36.81-.35,1.95h1.1c0-.34,0-.65.03-.88.12.19.24.51.36.88h1.16c-.36-1.26-.84-2.18-1.73-2.18Z"/>
  <path class="cls-1" d="m459.79,9.94c-.25-.05-.44,0-.7.29h1.08c-.12-.19-.28-.27-.38-.29Z"/>
  <path class="cls-1" d="m479.96,106.43c-2.23-.48-3.77-.27-4.73.67-1.71,1.67-1.04,5.19-.32,8.92.24,1.28.49,2.59.65,3.85,0,.04-.02.07-.02.09-.09-.02-.22-.08-.3-.12l-.18-.08c-1.84-.73-2.63-2.77-3.41-4.75-.79-2.02-1.61-4.12-3.58-4.74-1.89-.6-4.47.25-8.14,2.68l-1.1.73c-4.92,3.29-18,12.01-22.2,9.81-1.39-1.24-2.43-20.84-1.91-24.92.54-4.15,4.77-8.97,8.06-10.34.86-.36,2.06-.65,2.89-.02.7.54,1.44,1.95.95,5.64,0,0,0,0,0,0,.04-.3.3-.52.62-.47.3.04.51.31.48.62,0,.05-.02.1-.02.15,3.54-4.24,1.74-9.57,0-14.73-.95-2.8-1.85-5.45-1.9-7.86-.12-5.95,1.75-11.38,6.24-18.15,5.16-7.78,6.44-13.83,6.98-22.27.1-1.61,0-3.34-.12-5.18-.17-2.81-.35-5.71.29-8.06.54-1.99,1.12-5.36,1.12-7.2,0-.22-.05-.36-.12-.47h-1.08c-.23.27-.5.74-.91,1.56-.11-.54-.25-1.09-.38-1.56h-1.13c.35,1.29.67,2.88.68,3.35-.02.15.01.3.11.43.19.24.53.28.77.09.11-.09.12-.1.32-.55.19-.42.36-.78.51-1.07-.19,1.7-.58,3.76-.96,5.14-.68,2.52-.5,5.51-.32,8.41.11,1.8.21,3.5.12,5.04-.54,8.44-1.74,14.12-6.8,21.73-3.27,4.92-6.59,11-6.43,18.78.05,2.58,1.02,5.43,1.95,8.19,1.43,4.21,2.9,8.55,1.23,12.09.02-2.2-.5-3.71-1.54-4.51-.99-.75-2.36-.8-3.98-.13-3.63,1.51-8.13,6.63-8.73,11.21-.35,2.71.15,24.8,2.46,26.02.61.32,1.35.47,2.18.47,5.71,0,15.91-6.81,21.17-10.32l1.1-.73c3.33-2.2,5.69-3.03,7.2-2.55,1.48.47,2.16,2.23,2.89,4.1.82,2.09,1.74,4.47,4.02,5.37l.14.06c.32.14.81.36,1.28.1.31-.17.51-.5.58-.98,0-.05,0-.1,0-.15-.16-1.31-.42-2.68-.67-4-.65-3.43-1.27-6.67.01-7.93.66-.65,1.92-.77,3.72-.38,3.47.75,8.64,2.8,15.36,6.04v-1.22c-6.57-3.15-11.66-5.15-15.13-5.9Z"/>
  <path class="cls-1" d="m500.21,115.48c.14-.27.03-.6-.24-.74-1.72-.87-3.33-1.66-4.88-2.41v1.22c1.4.68,2.84,1.39,4.38,2.17.27.14.6.03.74-.24Z"/>
  <path class="cls-1" d="m445.89,45.63c.04-.29-.16-.57-.45-.62-.31-.04-.58.15-.63.45-.06.35-.05.78.02,1.22.02-.01.03-.02.05-.03.34-.31.68-.65,1.01-1.02Z"/>
  <path class="cls-1" d="m446.94,94.43c-.22-.1-.35-.33-.32-.57,0,0,0,0,0,0-.2,1.58-.44,3.16-.69,4.75-.64,4.25-1.31,8.64-1.27,12.97,0,.18.09.35.24.45.09.06.2.09.31.09.07,0,.13-.01.2-.04.73-.28,1.54-.87,2.48-1.54,2.05-1.48,4.61-3.32,8.11-3.47,5.25-.23,10.74-1.49,13.08-2.03.55-.13.94-.22,1.14-.25.3-.05.5-.34.45-.64-.05-.3-.32-.49-.64-.45-.21.04-.62.13-1.2.26-2.31.53-7.73,1.78-12.88,2-3.83.16-6.65,2.19-8.71,3.67-.54.39-1.04.75-1.48,1.02.05-3.96.66-7.99,1.25-11.89.24-1.55.47-3.09.67-4.63-.04.05-.07.09-.11.14-.16.18-.42.24-.64.14Z"/>
  <path class="cls-1" d="m447.23,93.38c-.31-.04-.58.17-.62.47-.03.24.1.47.32.57.22.1.48.04.64-.14.04-.05.07-.09.11-.14,0-.05.02-.1.02-.15.04-.3-.17-.58-.48-.62Z"/>
  <path class="cls-1" d="m306.9,52.64c-.3-.01-.54-.27-.53-.57,0-.06.02-.11.04-.17-.25-.12-.54-.05-.7.19-.17.25-.09.59.16.76.24.16.65.31,1.13.31s1.04-.16,1.57-.65c.02-.02.01-.05.03-.06-.05.02-.1.05-.16.06-.38.04-1.29.13-1.54.13Z"/>
  <path class="cls-1" d="m308.6,51.74c-.21-.22-.55-.23-.78-.03-.66.61-1.28.26-1.36.22-.02-.01-.04-.01-.06-.02-.02.05-.04.11-.04.17-.01.3.22.56.53.57.25,0,1.16-.09,1.54-.13.06,0,.11-.03.16-.06.17-.21.19-.51,0-.71Z"/>
  <path class="cls-1" d="m313.31,114.45l1.08,4.26c.06.25.29.41.53.41.05,0,.09,0,.14-.02.29-.07.47-.37.4-.67l-1.1-4.31c-2.36-6.58-6-17.08-6.53-19.38.29,1.73.48,3.7.61,5.72,1.72,5.2,4.17,12.07,4.86,13.99Z"/>
  <path class="cls-1" d="m311.26,87.87c-.33.27-.69.53-1.05.8-1.66,1.21-3.55,2.57-3.54,5.68,0,.01,0,.05,0,.06-.03-.29.16-.55.44-.61.3-.05.58.14.64.44,0,.02,0,.05.01.07,0-2.53,1.5-3.61,3.09-4.76.38-.28.76-.55,1.11-.84,2.56-2.12,5.3.09,5.83.56-.16-.57-.32-1.13-.46-1.69-1.6-.92-3.95-1.48-6.07.28Z"/>
  <path class="cls-1" d="m318.67,89.35c.21-.22.2-.57-.01-.78-.33-.32-.78-.67-1.32-.98.15.56.3,1.12.46,1.69.05.04.08.08.09.09.22.21.57.2.78-.02Z"/>
  <path class="cls-1" d="m307.12,93.81c-.29.05-.48.32-.44.61.04.63.78,3.06,1.77,6.04-.13-2.02-.33-3.99-.61-5.72-.04-.18-.07-.32-.07-.4,0-.01,0-.02,0-.03,0-.02,0-.05-.01-.07-.05-.3-.34-.49-.64-.44Z"/>
  <path class="cls-1" d="m371.47,93.7c-.03-.07-3.08-7.16-.04-11.98.43-.69,1-1.04,1.73-1.1,2.71-.17,6.94,3.64,9.18,6.01-.25,1.61-.54,2.99-.85,4.17.35,0,.72.04,1.09.08.24-.93.47-1.93.66-3.03-.47-1.89-.53-3.84-.35-5.8-.11,1.15-.22,2.23-.35,3.22-2.23-2.25-6.38-5.93-9.46-5.73-1.09.08-1.96.62-2.58,1.61-3.35,5.31-.17,12.7.01,13.1.07.1.82,1.18,1.97,2.24.18-.34.37-.66.57-.98-.95-.91-1.57-1.79-1.58-1.79Z"/>
  <path class="cls-1" d="m377.68,98.39c1.96-.52,3.51-2.68,4.63-6.45-.37-.03-.74-.07-1.09-.07,0,0-.02,0-.03,0-1.16,3.8-2.59,5.13-3.8,5.45-1.21.33-2.47-.3-3.51-1.11-.18.31-.36.63-.53.97.99.74,2.15,1.33,3.38,1.33.31,0,.63-.04.95-.12Z"/>
  <path class="cls-1" d="m384.05,81.47s0,0,0-.01c-.04.33-.07.65-.09.98.03-.32.07-.63.1-.97Z"/>
  <path class="cls-1" d="m382.93,81.64c0-.1.02-.19.03-.29,0,.01,0,.02,0,.03,0,.09-.02.17-.02.25Z"/>
  <path class="cls-1" d="m373.05,95.5c-.2.32-.39.64-.57.98.27.25.56.49.86.72.17-.34.35-.67.53-.97-.3-.23-.57-.48-.83-.72Z"/>
  <path class="cls-1" d="m381.19,91.88s.02,0,.03,0c.35,0,.72.03,1.09.07.1-.33.19-.71.28-1.07-.37-.04-.74-.07-1.09-.08-.1.38-.2.74-.31,1.08Z"/>
  <path class="cls-1" d="m383.55,80.88c-.32-.02-.55.19-.59.47-.01.1-.02.19-.03.29-.01.13-.03.27-.04.4-.17,1.96-.12,3.9.35,5.8.01-.06.02-.12.04-.18.2.2.53.21.75.02.23-.2.25-.55.06-.77-.04-.05-.25-.29-.58-.64.18-1.18.32-2.47.45-3.83.03-.32.06-.65.09-.98.02-.3-.2-.56-.5-.58Z"/>
</svg>