<svg width="207" height="51" viewBox="0 0 207 51" fill="none" xmlns="http://www.w3.org/2000/svg">
<g clip-path="url(#clip0_137_291)">
<path d="M130.772 31.6318C130.728 31.558 130.677 31.4875 130.623 31.417C130.527 31.4942 130.432 31.5714 130.327 31.6553C130.487 31.6452 130.633 31.6385 130.769 31.6284L130.772 31.6318Z" fill="white"/>
<path d="M130.908 31.1853C131.007 31.3195 131.099 31.4571 131.177 31.6081C131.269 31.6014 131.36 31.5981 131.456 31.5914C131.32 31.4101 131.187 31.2356 131.054 31.0645C131.003 31.1047 130.952 31.145 130.905 31.1853H130.908Z" fill="white"/>
<path d="M6.84696 35.0043C6.38461 34.719 5.78626 34.474 5.05193 34.2726L3.46088 33.8196C2.73335 33.6148 2.25059 33.3967 2.00921 33.1584C1.76784 32.9235 1.64545 32.6483 1.64545 32.3294C1.64545 31.8294 1.91062 31.43 2.43757 31.1313C2.96452 30.8326 3.67846 30.6816 4.58617 30.6816C5.4123 30.6816 6.29282 30.8326 7.22433 31.1346L7.59829 29.7519C6.5002 29.4499 5.50409 29.2988 4.60657 29.2988C3.2161 29.2988 2.1044 29.5774 1.26128 30.1312C0.418161 30.6849 0 31.44 0 32.3865C0 32.8228 0.0917915 33.2154 0.271975 33.5678C0.452158 33.9202 0.717333 34.2223 1.0675 34.474C1.41767 34.7257 1.79503 34.9204 2.1996 35.0479C2.60416 35.1754 3.2399 35.3735 4.10002 35.6319C5.16752 35.9541 5.84746 36.2662 6.13643 36.5649C6.4254 36.8636 6.56819 37.2026 6.56819 37.5818C6.56819 38.1456 6.27922 38.5954 5.69787 38.9377C5.11653 39.28 4.36519 39.4478 3.43708 39.4478C2.36958 39.4478 1.36667 39.2297 0.43516 38.7934L0.115589 40.2164C1.00631 40.6258 2.135 40.8272 3.50168 40.8272C4.86835 40.8272 6.00724 40.5218 6.89796 39.9143C7.78868 39.3069 8.23404 38.4779 8.23404 37.4308C8.23404 36.8971 8.11845 36.4273 7.88727 36.0212C7.65609 35.6185 7.30932 35.2728 6.84696 34.9875V35.0043Z" fill="#333333"/>
<path d="M17.3385 29.3027C15.9004 29.3027 14.7275 29.8196 13.8198 30.8566C12.9121 31.8937 12.4565 33.2831 12.4565 35.0283C12.4565 36.7735 12.9631 38.22 13.9728 39.2671C14.9825 40.3143 16.3152 40.8378 17.9674 40.8378C19.2763 40.8378 20.4254 40.6197 21.4079 40.1834L21.1189 38.8644C20.0446 39.2235 19.0009 39.4014 17.9878 39.4014C16.9271 39.4014 16.0296 38.9986 15.3021 38.1898C14.5745 37.381 14.2074 36.354 14.2074 35.1122H21.8465V34.5954C21.8465 32.9911 21.4147 31.7091 20.5546 30.7459C19.6945 29.7827 18.6202 29.3027 17.3385 29.3027ZM14.3162 33.7731C14.3808 32.867 14.6969 32.132 15.2613 31.5681C15.8256 31.0043 16.543 30.7257 17.4031 30.7257C18.0728 30.7257 18.678 31.0211 19.2185 31.6084C19.7591 32.1957 20.031 32.9173 20.031 33.7765H14.3162V33.7731Z" fill="#333333"/>
<path d="M31.5117 29.3027C30.1858 29.3027 28.928 29.9303 27.7313 31.1788V29.5645H26.0654V40.5525H27.7313V32.6018C28.9008 31.35 29.9921 30.7257 31.012 30.7257C31.6885 30.7257 32.1849 30.9472 32.501 31.3869C32.8172 31.8266 32.977 32.5347 32.977 33.5113V40.5559H34.6428V33.0381C34.6428 30.5479 33.5991 29.3061 31.5117 29.3061V29.3027Z" fill="#333333"/>
<path d="M40.0483 30.9904H43.329V40.5554H44.9949V29.5674H40.0483V30.9904Z" fill="#333333"/>
<path d="M44.1823 25.4131C43.8899 25.4131 43.6315 25.5238 43.4071 25.7487C43.1827 25.9736 43.0706 26.2387 43.0706 26.5408C43.0706 26.8428 43.1827 27.1079 43.4071 27.3362C43.6315 27.5644 43.8899 27.6785 44.1823 27.6785C44.5018 27.6785 44.7704 27.5711 44.988 27.3529C45.2056 27.1348 45.3143 26.8629 45.3143 26.5408C45.3143 26.2186 45.2056 25.9668 44.9846 25.7453C44.7636 25.5238 44.4984 25.4131 44.1823 25.4131Z" fill="#333333"/>
<path d="M56.5844 29.3027C55.0545 29.3027 53.834 29.8297 52.9297 30.8801C52.0254 31.9306 51.5732 33.32 51.5732 35.0518C51.5732 36.7836 52.022 38.1965 52.9229 39.2537C53.8238 40.3109 55.0443 40.8412 56.581 40.8412C58.1176 40.8412 59.3313 40.3109 60.2356 39.2504C61.14 38.1898 61.5921 36.7903 61.5921 35.0518C61.5921 33.3133 61.14 31.9407 60.2356 30.8868C59.3313 29.833 58.1142 29.3061 56.581 29.3061L56.5844 29.3027ZM58.9778 38.1395C58.393 38.9819 57.5975 39.4047 56.5844 39.4047C55.5713 39.4047 54.7689 38.9886 54.191 38.1562C53.6131 37.3239 53.3275 36.2936 53.3275 35.072C53.3275 33.7865 53.6131 32.7394 54.1808 31.934C54.7519 31.1285 55.5509 30.7257 56.5844 30.7257C57.6179 30.7257 58.41 31.1352 58.988 31.9507C59.5659 32.7663 59.8515 33.8067 59.8515 35.072C59.8515 36.3372 59.5591 37.2971 58.9744 38.1395H58.9778Z" fill="#333333"/>
<path d="M67.1097 37.4951C67.0214 37.5488 66.9058 37.5186 66.8548 37.4313C66.8038 37.3441 66.831 37.23 66.9194 37.1796C67.1369 37.0521 67.3681 36.9078 67.6129 36.7567C67.8305 36.6225 68.0583 36.4815 68.2928 36.3406V33.4442C68.2928 33.3805 68.49 33.0918 68.8844 32.575C69.2787 32.0581 69.7105 31.6621 70.1831 31.3835C70.6556 31.105 71.135 30.9674 71.6245 30.9674C72.1583 30.9674 72.794 31.1251 73.525 31.4406L74.1981 29.8599C73.406 29.4873 72.5934 29.3027 71.7503 29.3027C70.3326 29.3027 69.1802 30.1317 68.2894 31.793V29.5679H66.6338V40.5559H68.2894V36.7769C68.1228 36.8776 67.9597 36.9782 67.8067 37.0722C67.5619 37.2232 67.3273 37.3676 67.1097 37.4951Z" fill="#333333"/>
<path d="M170.141 24.9192L168.39 24.9092L168.318 37.6995C168.845 37.9478 169.393 38.2129 169.977 38.5083C170.069 38.5553 170.107 38.666 170.059 38.7566C170.011 38.8473 169.899 38.8842 169.807 38.8372C169.284 38.5754 168.794 38.3371 168.318 38.1089L168.308 39.7903L176.512 39.834L176.518 38.3271L170.066 38.2901L170.141 24.9192Z" fill="#333333"/>
<path d="M184.314 24.9961L179.306 39.847L181.122 39.8571L182.838 34.6584L187.785 34.6853L189.424 39.9041L191.259 39.9142L186.418 25.0062L184.314 24.9961ZM183.348 33.1515L185.351 27.0031L187.292 33.1717L183.348 33.1482V33.1515Z" fill="#333333"/>
<path d="M200.245 31.8024V31.7587C201.081 31.5171 201.734 31.1244 202.213 30.5774C202.689 30.0303 202.931 29.4061 202.934 28.7046C202.941 27.5602 202.536 26.6708 201.72 26.0365C200.904 25.4022 199.772 25.0834 198.317 25.0733L194.139 25.0498L194.054 39.9276L198.338 39.9511C199.735 39.9578 200.928 39.5651 201.928 38.7697C202.924 37.9743 203.427 36.9004 203.437 35.5512C203.44 34.6316 203.162 33.8328 202.597 33.1616C202.033 32.4904 201.248 32.0373 200.245 31.799V31.8024ZM195.883 26.5701L198.042 26.5836C199.062 26.5903 199.833 26.7782 200.357 27.1508C200.881 27.5233 201.142 28.0536 201.139 28.7416C201.132 30.2518 200.054 31.0036 197.909 30.9902L195.859 30.9801L195.883 26.5735V26.5701ZM200.568 37.679C199.884 38.1958 198.963 38.4509 197.8 38.4442L195.815 38.4341L195.849 32.487L197.709 32.4971C198.977 32.5038 199.942 32.7723 200.609 33.3026C201.275 33.8328 201.605 34.5813 201.601 35.5445C201.594 36.4506 201.251 37.1655 200.568 37.679Z" fill="#333333"/>
<path d="M205.518 21.0497C205.518 20.5765 205.161 20.3281 204.651 20.3281H203.587V23.0332H204.063V21.8787H204.471C204.858 21.8787 204.984 21.9995 204.984 22.3351V22.3989C204.984 22.7143 204.994 22.9191 205.035 23.0332H205.504C205.477 22.8788 205.467 22.6472 205.467 22.4056V22.3418C205.467 21.9928 205.361 21.7813 205.086 21.6807C205.31 21.6001 205.518 21.4256 205.518 21.0497ZM204.511 21.4961H204.066V20.7141H204.59C204.848 20.7141 205.035 20.8248 205.035 21.09C205.035 21.4155 204.807 21.4961 204.511 21.4961Z" fill="#333333"/>
<path d="M204.512 19.415C203.138 19.415 202.02 20.5192 202.02 21.8751C202.02 23.231 203.138 24.3352 204.512 24.3352C205.885 24.3352 207.003 23.231 207.003 21.8751C207.003 20.5192 205.885 19.415 204.512 19.415ZM204.512 24.1103C203.264 24.1103 202.244 23.1068 202.244 21.8751C202.244 20.6434 203.26 19.6365 204.512 19.6365C205.763 19.6365 206.776 20.64 206.776 21.8751C206.776 23.1102 205.759 24.1103 204.512 24.1103Z" fill="#333333"/>
<path d="M83.9621 34.6156C83.9417 34.6223 83.9179 34.629 83.8941 34.629C83.8601 34.629 83.8261 34.6156 83.7989 34.5988C83.8431 35.5117 84.1253 36.5085 84.4074 37.4817C84.8732 39.0994 85.3152 40.6298 84.6488 41.6165C84.625 41.6501 84.6046 41.6635 84.5672 41.6702C84.2443 41.7071 83.5337 41.0695 83.2957 40.858C81.9665 39.6699 80.8276 39.6062 79.8247 39.5491C78.8354 39.4921 77.9786 39.4451 77.0165 38.3577C76.9961 38.3443 76.5406 38.0254 76.119 38.3141C75.9558 38.4248 75.7994 38.7974 75.7382 38.9517C75.7008 39.0457 75.7484 39.1531 75.847 39.19C75.9422 39.2269 76.051 39.18 76.0884 39.086C76.17 38.8779 76.2856 38.6564 76.3332 38.6161C76.391 38.5758 76.4556 38.5624 76.5168 38.5624C76.6596 38.5624 76.7717 38.6363 76.7683 38.6295C77.8018 39.8008 78.7742 39.8579 79.8043 39.9149C80.7936 39.972 81.8169 40.0291 83.0476 41.1299C83.6085 41.6299 84.1831 42.0864 84.6148 42.0327C84.761 42.0159 84.88 41.9421 84.9616 41.8179C85.7231 40.6902 85.2574 39.0826 84.7678 37.3777C84.421 36.1796 84.0641 34.9445 84.1899 33.9276C84.3292 32.7831 84.8018 32.0851 85.4885 32.0112C86.2671 31.9307 87.1204 32.6892 87.5113 33.8168C88.0621 35.4009 87.9975 38.2872 87.9533 40.1969L87.9397 40.8647C87.9329 41.1601 87.9499 41.4957 87.9635 41.8481C88.0213 43.1603 88.0927 44.7914 87.083 45.4257C86.4846 45.805 84.4006 44.4223 83.3977 43.7577C83.1088 43.5664 82.864 43.4053 82.6974 43.308C82.422 43.1469 82.1194 42.9523 81.8033 42.7475C80.5658 41.9488 79.1617 41.0393 77.9344 41.1567C76.4182 41.2977 75.5479 42.2911 74.7047 43.741C74.6673 43.8047 74.6299 43.8484 74.5959 43.8718L74.7047 43.4221C75.2419 41.2675 75.9082 38.5826 75.0379 36.589C74.6367 35.6728 74.052 35.0888 73.2939 34.8539C71.7878 34.3874 69.8602 35.3909 68.2861 36.3373V36.7702C69.833 35.8305 71.764 34.7666 73.1817 35.2063C73.8378 35.411 74.3342 35.9111 74.6945 36.7367C75.5139 38.6195 74.8645 41.2339 74.341 43.3349L74.1846 43.9625C74.171 44.0162 74.1846 44.0766 74.2186 44.1202C74.341 44.2746 74.4872 44.288 74.5585 44.2846C74.7965 44.2679 74.9597 44.0262 75.0209 43.9255C75.8266 42.5395 76.6018 41.6534 77.9616 41.5259C79.0631 41.4286 80.4638 42.328 81.5891 43.0597C81.9121 43.2677 82.218 43.4658 82.4968 43.6302C82.66 43.7242 82.898 43.8819 83.1801 44.0699C84.5638 44.9861 85.9645 45.8553 86.8212 45.8553C86.9946 45.8553 87.1476 45.8184 87.2734 45.7412C88.4667 44.9928 88.3885 43.2409 88.3273 41.8347C88.3137 41.489 88.2967 41.1634 88.3035 40.8748L88.3171 40.2069C88.3613 38.2704 88.4259 35.3439 87.8547 33.6994C87.3992 32.3905 86.4065 31.5481 85.4409 31.6488C85.0398 31.689 84.1015 31.9844 83.8363 33.7262C83.9043 33.9343 83.9757 34.1457 84.0641 34.3739C84.1015 34.4679 84.0539 34.5753 83.9553 34.6122L83.9621 34.6156Z" fill="#333333"/>
<path d="M67.6096 36.7566C67.3648 36.9076 67.1337 37.0485 66.9161 37.1794C66.8277 37.2331 66.8005 37.3439 66.8515 37.4311C66.9025 37.5184 67.0181 37.5453 67.1065 37.4949C67.3241 37.364 67.5586 37.2231 67.8034 37.072C67.9598 36.9747 68.123 36.8774 68.2862 36.7767V36.3438C68.0516 36.4847 67.8238 36.6257 67.6062 36.7599L67.6096 36.7566Z" fill="#333333"/>
<path d="M86.3589 19.1842C86.4031 19.0936 86.5153 19.0533 86.6071 19.0969C86.6343 19.1103 86.658 19.117 86.6852 19.1305C87.3346 17.986 87.3958 16.1334 86.6954 14.9319C86.1141 13.9352 85.0296 13.4485 84.0573 13.7506C83.3604 13.9687 82.6532 14.6735 82.7722 16.0025C82.8606 16.996 83.8261 18.7714 84.9242 19.0969C85.2846 19.2043 85.8115 19.2009 86.3045 18.5935C86.3385 18.5499 86.3521 18.4962 86.3419 18.4425C86.3317 18.3888 86.2977 18.3451 86.2501 18.3183C86.1209 18.2478 86.0155 18.1538 85.8999 18.0599C85.8387 18.0095 85.7775 17.9558 85.7129 17.9055C85.7265 17.8954 85.7469 17.882 85.7775 17.8618C85.8319 17.8283 85.8659 17.7712 85.8693 17.7075C85.8727 17.6437 85.8387 17.5833 85.7843 17.5497C85.7163 17.5061 85.6823 17.4625 85.6347 17.4021C86.0053 17.1805 86.3113 17.0463 86.3147 17.0429C86.3657 17.0195 86.4031 16.9792 86.4167 16.9255C86.4303 16.8718 86.4235 16.8181 86.3929 16.7711C86.3827 16.7577 85.4274 15.3582 84.982 14.6567C84.9276 14.5695 84.812 14.546 84.7236 14.5963C84.6352 14.65 84.608 14.7641 84.6658 14.8514C85.0194 15.4085 85.6891 16.3986 85.9611 16.8013C85.7911 16.8852 85.5328 17.0228 85.254 17.2007C85.2064 17.2309 85.1758 17.2812 85.169 17.3349C85.1622 17.3886 85.1826 17.4457 85.22 17.486C85.2642 17.5296 85.2948 17.5699 85.3254 17.6101C85.3458 17.637 85.3662 17.6638 85.3934 17.694C85.3798 17.7108 85.3594 17.7242 85.3016 17.7612C85.2438 17.7947 85.2098 17.8551 85.2098 17.9223C85.2098 17.986 85.2472 18.0498 85.305 18.08C85.4342 18.1505 85.5396 18.2444 85.6551 18.3384C85.7265 18.3988 85.7945 18.4592 85.8761 18.5163C85.6211 18.7613 85.3424 18.8351 85.0364 18.7445C84.1083 18.4693 83.2312 16.8684 83.1496 15.969C83.0646 15.0259 83.4487 14.3278 84.1729 14.103C84.829 13.8982 85.7979 14.1265 86.3725 15.1132C87.1544 16.4523 86.8892 18.768 85.8693 19.5366C85.1214 20.1004 84.2783 19.5433 83.7037 18.9727C82.0413 17.3282 81.7863 13.5291 81.6197 11.0153L81.5823 10.4884C81.8917 10.1595 82.6294 10.1494 83.0306 10.1998C83.0476 10.1998 83.068 10.1998 83.085 10.1998C83.1802 10.183 83.4012 10.1461 83.425 9.95812C83.4487 9.7534 83.238 9.66614 82.8538 9.50504C82.6634 9.42449 82.2215 9.23991 82.1807 9.14258C82.1637 8.95128 82.2895 8.6895 82.3405 8.60895C82.354 8.59217 82.3676 8.57203 82.3744 8.5519C82.4186 8.42772 82.4832 8.2834 82.5478 8.13909C82.762 7.65916 82.983 7.16581 82.6498 6.9678C82.5852 6.93088 82.5104 6.92081 82.439 6.9443C82.2249 7.01143 82.0583 7.33362 81.7557 8.00484C81.7421 8.03169 81.7285 8.0619 81.7149 8.0921C81.7081 8.02163 81.7047 7.95115 81.6979 7.88738C81.6435 7.15238 81.6061 6.84026 81.4395 6.7228C81.3953 6.69259 81.2934 6.67245 81.239 6.68588C81.0418 6.73622 81.0282 6.93423 81.0112 7.75649C81.0078 7.9008 81.0044 8.07868 80.9942 8.23306C80.9432 8.14245 80.8956 8.04512 80.8514 7.96793C80.5658 7.42087 80.3958 7.08862 80.1273 7.19266C79.8757 7.28999 79.9505 7.63567 80.0661 8.15587C80.0967 8.29683 80.1409 8.50155 80.1613 8.64251C80.0627 8.57539 79.9335 8.48142 79.8349 8.40758C79.4677 8.13238 79.2093 7.95115 79.0122 7.92765C78.883 7.91087 78.7844 7.94108 78.7198 8.01827C78.6314 8.12902 78.6756 8.25991 78.696 8.31361C78.7096 8.35053 78.7334 8.38409 78.7674 8.40423C80.542 9.61244 80.4264 12.1262 80.3074 14.791C80.2156 16.7912 80.1239 18.862 80.9194 20.332C81.2798 20.9998 81.6027 21.3724 81.8883 21.7013C82.5512 22.4665 83.1258 23.1276 83.9825 27.2926C84.1355 28.0343 83.9043 28.578 83.6357 29.2056C83.1734 30.2829 82.5988 31.622 83.7207 34.5218C83.7377 34.562 83.7649 34.5922 83.7989 34.6124C83.7887 34.3707 83.7887 34.1324 83.8159 33.9009C83.8227 33.8438 83.8329 33.7935 83.8397 33.7431C83.0918 31.4375 83.5609 30.3333 83.9791 29.3499C84.2613 28.6955 84.5264 28.0746 84.3497 27.2221C83.4725 22.9632 82.8708 22.2685 82.1739 21.463C81.8883 21.1341 81.5925 20.7918 81.2492 20.1608C80.5012 18.7781 80.593 16.761 80.6814 14.8111C80.7834 12.5591 80.8888 10.24 79.7159 8.78347C80.0491 9.02847 80.2054 9.1258 80.355 9.07546C80.6304 8.98484 80.5454 8.60559 80.4298 8.07868C80.4162 8.02498 80.4026 7.96121 80.389 7.89745C80.4366 7.98135 80.4808 8.06861 80.5182 8.13909C80.7596 8.60559 80.8752 8.81368 81.0452 8.84388C81.103 8.85059 81.1914 8.83046 81.2356 8.79354C81.3103 8.72977 81.3409 8.62909 81.3579 8.35053C81.3919 8.65258 81.4395 8.7734 81.5823 8.80361C81.7761 8.84724 81.8509 8.68614 82.0923 8.15587C82.1705 7.98806 82.2861 7.72964 82.388 7.53834C82.3337 7.68937 82.2555 7.86724 82.2011 7.98806C82.1331 8.13573 82.0685 8.2834 82.0209 8.41429C81.9053 8.5821 81.7795 8.9345 81.8033 9.1795C81.8305 9.46477 82.2249 9.646 82.626 9.81716C82.1841 9.81716 81.5483 9.90442 81.2322 10.3273C81.205 10.3609 81.1948 10.4045 81.1948 10.4481L81.2356 11.0455C81.4055 13.613 81.6639 17.496 83.4283 19.2412C84.727 20.5266 85.6517 20.1675 86.0869 19.8353C86.2263 19.7279 86.3555 19.597 86.4711 19.4459C86.4609 19.4392 86.4507 19.4392 86.4371 19.4325C86.3453 19.3889 86.3045 19.2781 86.3487 19.1875L86.3589 19.1842Z" fill="#333333"/>
<path d="M83.7988 34.5987C83.8294 34.6155 83.86 34.6289 83.894 34.6289C83.9178 34.6289 83.9382 34.6256 83.962 34.6155C84.0572 34.5786 84.1082 34.4712 84.0708 34.3772C83.9824 34.149 83.911 33.9376 83.843 33.7295C83.8362 33.7832 83.826 33.8335 83.8192 33.8872C83.792 34.1154 83.7886 34.3537 83.8022 34.5987H83.7988Z" fill="#333333"/>
<path d="M101.508 36.1827C101.508 36.1827 101.515 36.1793 101.519 36.1758C101.498 36.1827 101.477 36.1897 101.453 36.1897C101.471 36.1897 101.491 36.1897 101.508 36.1827Z" fill="#333333"/>
<path d="M104.544 19.1436C104.669 19.1906 104.782 19.2241 104.894 19.2543C105.251 19.0865 105.649 18.6737 105.812 17.7038C106.124 15.8411 105.332 14.7504 104.489 14.351C103.687 13.9718 102.772 14.1329 102.211 14.7504C101.786 15.2169 101.008 16.5963 102.742 19.4524C102.487 19.5396 102.256 19.5027 102.038 19.345C100.559 18.2475 100.206 12.0051 100.852 9.13892C100.947 8.71605 101.606 8.45762 102.038 8.28646C102.184 8.20256 102.381 8.0918 102.327 7.90386C102.273 7.71927 102.075 7.72598 101.749 7.73605C101.508 7.74276 101.005 7.75955 100.913 7.63201C100.855 7.54475 100.848 7.189 101.164 5.99086C101.246 5.68209 101.277 5.56463 101.107 5.50757C101.045 5.48743 100.93 5.47737 100.848 5.65189C100.403 6.62852 100.155 6.70236 100.076 6.69229C99.8453 6.68222 99.6107 5.99421 99.4951 5.66531C99.3625 5.27935 99.3047 5.12161 99.1687 5.06456C99.1313 5.04778 99.06 5.04442 99.0192 5.05449C98.737 5.12497 98.822 5.47065 99.009 6.22579C99.0532 6.41037 99.1143 6.64866 99.1483 6.83325C99.0634 6.72585 98.9682 6.59161 98.8968 6.49092C98.584 6.04791 98.3358 5.69887 98.0672 5.88346C97.8497 6.03113 97.9924 6.33654 98.2066 6.79969C98.3018 7.00106 98.4684 7.35681 98.4888 7.5179C98.3868 7.47427 98.2168 7.3501 98.125 7.28633C97.8803 7.10845 97.7171 6.99434 97.5641 7.1051C97.4213 7.20914 97.4859 7.39708 97.5097 7.46756C97.5199 7.49441 97.5335 7.52126 97.5573 7.5414C97.6423 7.6253 97.7273 7.69913 97.8089 7.77297C98.1318 8.0616 98.3868 8.28982 98.5466 8.80331C98.992 10.2263 98.9648 12.626 98.9376 14.9484C98.9104 17.3816 98.8832 19.6839 99.3455 21.0969C99.7025 22.1943 100.066 23.0267 100.386 23.7583C101.164 25.5337 101.589 26.5137 100.76 28.7254L100.716 28.8429C100.41 29.645 100.097 30.4773 100.365 32.2561C100.44 32.7595 100.767 34.263 101.12 35.535C101.27 35.629 101.419 35.7364 101.576 35.8706C101.61 35.8975 101.627 35.9377 101.634 35.978C101.634 35.9713 101.634 35.9646 101.634 35.9579C101.229 34.6221 100.821 32.7662 100.736 32.2024C100.478 30.5176 100.777 29.7322 101.066 28.9704L101.11 28.8529C101.994 26.5036 101.518 25.4162 100.729 23.6106C100.413 22.8857 100.053 22.0634 99.6991 20.9828C99.2571 19.6235 99.2843 17.2474 99.3081 14.9518C99.3353 12.6025 99.3625 10.1726 98.9002 8.69591C98.788 8.34351 98.635 8.09852 98.4616 7.89715C98.5602 7.91728 98.652 7.90722 98.7336 7.84345C99.0124 7.63201 98.7982 7.17558 98.5466 6.6453C98.5602 6.66544 98.5772 6.68558 98.5908 6.70572C98.8866 7.12188 99.1007 7.42057 99.3489 7.37694C99.3999 7.36688 99.4713 7.31989 99.5019 7.27626C99.5767 7.16551 99.5665 6.98428 99.4849 6.61846C99.6311 6.87017 99.8147 7.05475 100.059 7.06482C100.236 7.07825 100.413 6.98763 100.59 6.79633C100.488 7.31318 100.478 7.67564 100.607 7.85352C100.773 8.08174 101.154 8.10858 101.494 8.1153C101.069 8.3066 100.59 8.59523 100.484 9.06509C99.8589 11.844 100.073 18.3583 101.814 19.647C102.198 19.9323 102.643 19.9524 103.102 19.7041C103.146 19.6806 103.18 19.6369 103.194 19.59C103.208 19.5396 103.201 19.4893 103.17 19.4456C101.96 17.5293 101.705 15.868 102.49 15.0055C102.939 14.5088 103.68 14.3846 104.329 14.6933C105.264 15.1364 105.683 16.2439 105.445 17.6535C105.322 18.3885 105.04 18.8449 104.629 18.9724C104.255 19.0865 103.775 18.912 103.381 18.5093C102.929 18.0495 102.514 17.187 102.834 16.2741C103.034 15.7035 103.272 15.3814 103.517 15.3914C103.82 15.4048 104.19 15.9217 104.357 16.5694C104.387 16.6835 104.503 17.1131 104.55 17.2339C104.557 17.2507 104.564 17.2709 104.571 17.291C104.465 17.3011 104.377 17.3078 104.353 17.3078C104.265 17.3044 104.197 17.3548 104.173 17.4286C104.18 17.4286 104.187 17.432 104.193 17.4353C104.217 17.4487 104.431 17.5696 104.656 17.3615C104.731 17.2944 104.85 17.2977 104.921 17.3715C104.986 17.4387 104.979 17.5394 104.921 17.6098C104.955 17.5931 104.989 17.5729 105.009 17.536C105.04 17.4857 105.043 17.4219 105.016 17.3682C105.016 17.3682 104.945 17.2138 104.904 17.1064C104.87 17.0091 104.754 16.6063 104.724 16.4788C104.54 15.7707 104.102 15.0457 103.537 15.0222C103.116 14.9954 102.752 15.3847 102.483 16.1499C102.106 17.2205 102.589 18.2274 103.116 18.7643C103.48 19.1369 103.901 19.345 104.306 19.3718C104.295 19.3349 104.292 19.2946 104.306 19.2543C104.343 19.1604 104.452 19.11 104.547 19.1503L104.544 19.1436Z" fill="#333333"/>
<path d="M101.895 39.3846C101.929 39.5692 101.957 39.7235 101.984 40.0222C102.127 41.4956 101.062 42.9891 98.9886 44.2241C97.537 45.09 94.7492 44.6302 93.5695 43.6637C93.4131 43.5361 93.2568 43.3952 93.097 43.2441C93.1786 43.1636 93.2602 43.073 93.3315 42.979C94.1509 41.9319 93.4437 40.5861 92.8726 39.502C92.7434 39.2537 92.6176 39.0154 92.5156 38.7939C92.383 38.4985 92.2504 38.2166 92.1281 37.9481C91.047 35.5988 90.3296 34.0449 90.3772 31.1486C90.3874 30.5344 90.4282 29.9269 90.469 29.343C90.5336 28.41 90.5982 27.4434 90.5336 26.4433C90.4928 25.7955 90.3636 25.225 90.2378 24.6712C90.044 23.8053 89.8605 22.9864 90.0305 21.9762C90.0543 21.8386 90.384 21.3755 90.6764 20.9627C91.2271 20.1874 91.9105 19.2242 91.9921 18.5932C92.2402 16.6165 90.8702 14.9988 89.5409 13.4315C88.0008 11.6158 86.5458 9.90082 87.2597 7.61864C87.2801 7.55488 87.2597 7.48104 87.2121 7.43406C87.1577 7.38036 87.0829 7.35015 87.0081 7.35686C86.8313 7.36358 86.6886 7.53474 86.4948 7.76631C86.3656 6.63529 86.1548 6.48091 85.9304 6.49769C85.876 6.50105 85.7944 6.52454 85.7265 6.6118C85.6483 6.71248 85.6041 6.89036 85.5803 7.10515C85.3967 6.53461 85.2675 6.23927 85.0907 6.14865C85.0261 6.11509 84.9513 6.10838 84.8867 6.12851C84.8289 6.1453 84.7507 6.19228 84.7065 6.3131C84.6284 6.52118 84.6692 6.98769 84.7541 7.46426C84.5298 7.08166 84.3734 6.887 84.2136 6.84337C84.1456 6.82324 84.0742 6.83331 84.0232 6.86351C83.8226 6.96755 83.8872 7.11858 84.2544 7.95761C84.3938 8.27645 84.557 8.65234 84.7065 9.05507C84.6488 9.15576 84.2476 9.22959 84.0742 9.26316C83.8192 9.31014 83.6798 9.33699 83.6084 9.44103C83.5812 9.4813 83.5677 9.55178 83.5778 9.60213C83.6458 9.92767 84.1218 10.0518 84.5842 10.1727C84.7269 10.2096 84.8595 10.2431 84.9649 10.2801C85.1315 10.3405 85.2607 10.3841 85.3593 10.411C85.4613 10.4412 85.5531 10.5083 85.6211 10.5989L86.1956 11.3842C87.4025 13.022 88.13 14.0087 89.1805 16.0023C89.5749 16.744 89.4661 18.1368 88.7352 18.8852C88.2218 19.4088 87.5147 19.4893 86.6818 19.1235C86.6172 19.2343 86.5492 19.3417 86.4744 19.439C87.4705 19.8954 88.368 19.7947 89.0037 19.1437C89.7857 18.3449 90.0236 16.7977 89.5137 15.8345C88.4462 13.8174 87.7119 12.8207 86.4982 11.1694L85.9236 10.3875C85.8114 10.2331 85.6483 10.1156 85.4715 10.0619C85.3797 10.0351 85.2539 9.9948 85.0975 9.93774C84.9853 9.89747 84.8391 9.85719 84.6827 9.81692C84.54 9.78 84.2714 9.70952 84.1014 9.63569C84.1184 9.63233 84.1354 9.62898 84.149 9.62562C84.4822 9.56185 84.8969 9.48466 85.0363 9.23295C85.0771 9.16247 85.1145 9.04165 85.0533 8.89062C84.9887 8.72617 84.9207 8.56172 84.8527 8.40063C84.9989 8.65905 85.0907 8.80672 85.1689 8.87049C85.2403 8.92754 85.3389 8.92418 85.4103 8.86713C85.4817 8.81008 85.4953 8.70939 85.4477 8.6322C85.2981 8.38384 85.0499 7.21926 85.0329 6.68563C85.1383 6.93399 85.2607 7.34008 85.3457 7.61529C85.4885 8.08515 85.5803 8.38049 85.6755 8.51809C85.7264 8.58857 85.8216 8.61877 85.9032 8.58521C85.9848 8.55165 86.0324 8.46439 86.0154 8.38049C85.9168 7.89385 85.9202 7.30652 85.9678 7.01118C86.0324 7.21255 86.1106 7.60522 86.1582 8.22946C86.165 8.29994 86.2126 8.36371 86.2806 8.3872C86.3486 8.41405 86.4268 8.39391 86.4778 8.34357C86.5832 8.23953 86.6818 8.12207 86.7736 8.01467C86.3452 10.2431 87.8207 11.985 89.2519 13.6731C90.588 15.2472 91.8459 16.7339 91.6181 18.553C91.5501 19.0933 90.8668 20.0532 90.367 20.7546C89.9387 21.3554 89.6939 21.7077 89.6599 21.9192C89.4763 22.9999 89.6667 23.8523 89.8707 24.7551C89.9931 25.2955 90.1188 25.8526 90.1562 26.4701C90.2174 27.4468 90.1562 28.3563 90.0916 29.3228C90.0508 29.9135 90.0101 30.5243 89.9999 31.1486C89.9523 34.1288 90.6832 35.7129 91.7847 38.1059C91.9105 38.3744 92.0397 38.6563 92.1723 38.9516C92.2742 39.1798 92.4034 39.4248 92.5394 39.6799C93.0868 40.7203 93.7055 41.8983 93.0324 42.7575C92.9678 42.8414 92.8964 42.9219 92.825 42.9924C92.5326 42.7105 92.2402 42.4051 91.9513 42.1064C90.9246 41.0492 90.0406 40.1363 89.3573 40.1061C88.946 40.0927 88.7182 40.2773 88.5992 40.435C88.266 40.8848 88.3748 41.6365 88.4768 41.9084C88.8712 42.979 89.8333 43.7811 90.9212 43.9489C91.6147 44.053 92.2708 43.8885 92.8114 43.4858C92.9848 43.6502 93.1582 43.8013 93.3281 43.9422C94.1407 44.6101 95.6025 45.0497 96.976 45.0497C97.7953 45.0497 98.5807 44.892 99.179 44.5363C101.382 43.2206 102.511 41.603 102.354 39.982C102.324 39.6665 102.297 39.5054 102.259 39.3141C102.259 39.3074 102.259 39.2973 102.256 39.2906C102.116 39.2067 101.977 39.1194 101.834 39.0288C101.855 39.1664 101.875 39.2805 101.892 39.3779L101.895 39.3846ZM90.9824 43.5898C90.0237 43.4422 89.1805 42.734 88.8304 41.7876C88.742 41.5459 88.6876 40.9452 88.9018 40.6565C88.9901 40.5357 89.1227 40.4753 89.3029 40.4753C89.3165 40.4753 89.3267 40.4753 89.3403 40.4753C89.8741 40.4988 90.792 41.4452 91.6827 42.3615C91.9649 42.6535 92.2538 42.9522 92.5428 43.2341C92.0941 43.5529 91.5569 43.6771 90.9824 43.5898Z" fill="#333333"/>
<path d="M86.6069 19.0968C86.5151 19.0531 86.4029 19.0934 86.3587 19.184C86.3145 19.2746 86.3553 19.3854 86.4471 19.429C86.4573 19.4357 86.4675 19.4357 86.4811 19.4424C86.5559 19.3451 86.6239 19.2411 86.6885 19.127C86.6613 19.1169 86.6375 19.1068 86.6103 19.0934L86.6069 19.0968Z" fill="#333333"/>
<path d="M109.065 41.7273C109.065 41.7273 109.072 41.6971 109.075 41.6804C108.868 42.2274 108.433 42.2643 107.869 42.308C106.794 42.3919 105.458 42.4993 104.975 45.8386C104.88 46.4931 104.598 46.785 104.472 46.7918C104.448 46.7918 104.425 46.7448 104.414 46.7112C104.503 45.2312 104.357 44.2277 104.224 43.3383C104.176 43.0195 104.132 42.714 104.102 42.4019C103.942 40.8547 104.272 40.5829 104.374 40.5359C104.557 40.4554 104.88 40.6366 105.241 41.0192C105.312 41.093 105.428 41.0964 105.506 41.0293C105.581 40.9588 105.584 40.8447 105.516 40.7675C104.887 40.0996 104.465 40.0895 104.221 40.2003C103.762 40.405 103.599 41.1601 103.731 42.4388C103.765 42.7577 103.809 43.0664 103.857 43.392C103.986 44.2679 104.132 45.2614 104.04 46.7179C104.04 46.7347 104.04 46.7548 104.044 46.7716C104.112 47.0569 104.306 47.1609 104.472 47.1609C104.479 47.1609 104.486 47.1609 104.489 47.1609C104.816 47.1475 105.22 46.7448 105.346 45.8923C105.788 42.8449 106.91 42.7577 107.899 42.6771C108.477 42.6301 109.069 42.5798 109.375 41.9186C109.327 41.9186 109.286 41.9186 109.249 41.9186C109.147 41.9153 109.065 41.8314 109.069 41.7273H109.065Z" fill="#333333"/>
<path d="M109.259 41.5489C109.317 41.5489 109.398 41.5489 109.497 41.5355C109.562 41.2535 109.596 40.8978 109.582 40.4481C109.558 39.6627 109.551 38.9244 109.545 38.2196C109.521 35.5917 109.5 33.323 108.572 30.43C107.243 26.2885 107.314 22.7981 108.814 18.3814C109.453 16.4952 109.245 14.599 109.007 12.4007L108.963 11.9913C108.735 9.86686 108.763 9.24933 109.575 7.52091C109.575 7.51756 109.579 7.51084 109.582 7.50749L109.613 7.44372C110.126 6.38318 110.136 6.10462 109.976 5.9603C109.935 5.92674 109.861 5.89989 109.803 5.90661C109.65 5.92339 109.528 6.07441 109.249 6.47379C109.228 6.504 109.201 6.53756 109.177 6.57448C109.106 6.28249 109.038 5.96702 108.973 5.68174C108.79 4.84271 108.759 4.73867 108.684 4.66819C108.633 4.61785 108.531 4.59771 108.463 4.62456C108.314 4.68497 108.266 4.80579 108.208 5.83277C107.882 4.69504 107.821 4.5675 107.6 4.60778C107.43 4.64134 107.348 4.65476 107.454 5.92339C107.27 5.53072 107.114 5.3327 106.927 5.31257C106.872 5.30586 106.74 5.31257 106.641 5.46024C106.617 5.4938 106.607 5.53407 106.611 5.57435C106.628 5.769 106.747 6.19859 106.872 6.65503C106.93 6.85639 106.988 7.07454 107.036 7.25913C106.39 6.86982 106.175 6.86982 106.05 7.00071C105.876 7.18194 106.07 7.46721 106.26 7.71221C107.78 9.90378 107.644 10.4877 107.199 12.4209C107.076 12.9512 106.923 13.6123 106.781 14.4245C106.679 14.9984 106.665 15.6763 106.651 16.3274C106.628 17.5491 106.6 18.811 105.995 19.2104C105.737 19.3815 105.37 19.3882 104.89 19.254C104.836 19.2808 104.785 19.301 104.734 19.3144C104.595 19.358 104.445 19.3715 104.295 19.3614C104.312 19.4151 104.346 19.4621 104.404 19.4822C105.186 19.7876 105.774 19.7977 106.203 19.5158C106.971 19.009 106.998 17.7102 107.025 16.3308C107.039 15.6898 107.053 15.0286 107.148 14.4816C107.291 13.6794 107.433 13.0518 107.563 12.4981C108.025 10.5012 108.178 9.82658 106.563 7.49071C106.526 7.44372 106.495 7.40009 106.471 7.36317C106.614 7.4303 106.845 7.56119 107.206 7.79612C107.267 7.83639 107.342 7.83639 107.403 7.80283C107.464 7.76591 107.501 7.69879 107.495 7.62831C107.478 7.43365 107.359 7.00407 107.233 6.54763C107.182 6.36975 107.131 6.17845 107.087 6.01065C107.219 6.28585 107.355 6.6416 107.416 6.8027C107.569 7.20208 107.61 7.30947 107.787 7.2692C107.851 7.25578 107.953 7.20208 107.933 7.01078C107.882 6.51407 107.848 6.13147 107.824 5.83613C107.862 5.96702 107.899 6.10126 107.936 6.23215L108.127 6.89331C108.154 6.98057 108.253 7.05441 108.338 7.04434C108.521 7.0242 108.521 6.99064 108.562 6.16503C108.569 6.02743 108.579 5.84955 108.589 5.66832C108.596 5.69517 108.603 5.72202 108.606 5.74887C108.691 6.14154 108.793 6.59462 108.892 6.96715C108.909 7.03763 108.984 7.10475 109.055 7.11817C109.215 7.14838 109.303 7.0242 109.534 6.69866C109.473 6.84633 109.388 7.03427 109.276 7.27256C109.262 7.30276 109.249 7.32961 109.239 7.3531C108.389 9.152 108.358 9.84337 108.593 12.0181L108.637 12.4276C108.871 14.5822 109.075 16.4415 108.46 18.2505C107.073 22.3349 106.893 25.6475 107.885 29.3828C108.069 29.4869 108.222 29.6044 108.334 29.7118C108.409 29.7822 108.409 29.8997 108.338 29.9735C108.266 30.0474 108.147 30.0474 108.072 29.9802C108.069 29.9769 108.055 29.9668 108.042 29.95C108.1 30.1413 108.154 30.336 108.219 30.5306C109.13 33.3699 109.15 35.6152 109.174 38.2095C109.181 38.9177 109.188 39.656 109.211 40.4447C109.228 40.985 109.188 41.3609 109.096 41.6227C109.126 41.569 109.181 41.5321 109.262 41.5321L109.259 41.5489Z" fill="#333333"/>
<path d="M104.894 19.2546C104.782 19.2244 104.669 19.1909 104.544 19.1439C104.448 19.1036 104.34 19.1539 104.302 19.2479C104.285 19.2882 104.289 19.3285 104.302 19.3654C104.452 19.3754 104.601 19.362 104.741 19.3184C104.792 19.3016 104.843 19.2815 104.897 19.258L104.894 19.2546Z" fill="#333333"/>
<path d="M128.716 47.0028C128.444 47.4257 128.185 47.8251 127.92 48.1271C127.964 47.9963 128.029 47.8284 128.127 47.6338C128.362 47.08 128.382 46.5867 128.192 46.1302C127.886 45.3986 127.063 44.8381 125.873 44.2676C125.928 44.3146 125.955 44.3918 125.931 44.4656C125.907 44.5428 125.833 44.5931 125.754 44.5931C125.737 44.5931 125.717 44.5931 125.697 44.5831C125.669 44.573 125.646 44.5663 125.618 44.5562C126.761 45.0965 127.577 45.6302 127.845 46.2678C127.995 46.627 127.974 47.0263 127.787 47.4761C127.563 47.9191 127.345 48.4795 127.594 48.6507C127.638 48.6809 127.682 48.6943 127.73 48.6943C127.893 48.6943 128.049 48.5265 128.127 48.446C128.444 48.1137 128.743 47.6472 129.032 47.1975C129.484 46.4927 129.953 45.7711 130.47 45.5396C130.307 45.4959 130.147 45.4523 129.984 45.4053C129.514 45.7678 129.11 46.3887 128.716 46.9995V47.0028Z" fill="#333333"/>
<path d="M115.929 41.5528C112.703 41.1535 110.769 41.3884 109.841 41.4991C109.708 41.5159 109.596 41.5293 109.501 41.5394C109.467 41.6837 109.426 41.8113 109.375 41.9187C109.507 41.9119 109.674 41.8918 109.885 41.865C110.799 41.7542 112.7 41.526 115.882 41.9187C119.013 42.3046 121.087 42.6671 123.089 43.486L123.262 43.5565C123.446 43.6303 123.623 43.7041 123.8 43.7746C123.378 43.5263 123.024 43.2544 122.732 42.9524C120.842 42.2543 118.833 41.9086 115.926 41.5495L115.929 41.5528Z" fill="#333333"/>
<path d="M125.768 44.2235C125.234 43.9718 124.636 43.7201 123.976 43.4482C124.473 43.7436 125.068 43.9986 125.768 44.2235Z" fill="#333333"/>
<path d="M109.259 41.5487C109.177 41.5487 109.123 41.5856 109.092 41.6393C109.086 41.6527 109.079 41.6662 109.075 41.6829C109.072 41.6997 109.065 41.7132 109.065 41.7299C109.065 41.8306 109.143 41.9179 109.245 41.9212C109.283 41.9212 109.327 41.9212 109.371 41.9212C109.422 41.8138 109.463 41.6863 109.497 41.542C109.398 41.5521 109.317 41.5588 109.259 41.5554V41.5487Z" fill="#333333"/>
<path d="M126.825 32.0508C126.914 32.1347 127.005 32.2153 127.107 32.2925C127.706 31.3091 128.518 30.8393 129.593 30.8359C129.627 30.7218 129.664 30.601 129.698 30.4734C128.314 30.4466 127.42 31.1111 126.825 32.0508Z" fill="#333333"/>
<path d="M130.748 35.7829C130.575 36.293 130.181 36.9743 129.763 37.6925C129.042 38.9343 128.297 40.2164 128.338 41.1561C128.372 41.9011 128.552 42.3979 128.885 42.6764C129.344 43.059 130.004 42.9785 130.697 42.8879C131.408 42.8006 132.146 42.7066 132.792 43.0523C133.237 43.2906 133.591 43.6497 133.934 43.9987C134.498 44.5726 135.083 45.17 135.896 44.7035C135.947 44.6733 136.001 44.6331 136.062 44.5861C136.195 44.4854 136.331 44.3746 136.48 44.3881C136.664 44.3981 136.79 44.4485 136.878 44.5525C137.16 44.8881 137.045 45.7674 136.895 46.8783C136.756 47.9254 136.582 49.2276 136.671 50.6238C136.637 50.6305 136.599 50.6305 136.589 50.6238C136.589 50.6238 136.579 50.6003 136.596 50.5365C136.603 50.5097 136.603 50.4795 136.596 50.4526C135.984 47.7878 135.457 46.8716 133.135 45.9487C132.666 45.7607 131.857 45.5426 130.915 45.2841C129.072 44.7807 126.546 44.0927 126.026 43.4349C124.942 42.0622 125.656 37.9912 125.999 36.0346C126.04 35.803 126.077 35.595 126.104 35.4238C126.295 34.2592 126.563 33.3296 126.924 32.618C126.818 32.5409 126.723 32.4603 126.631 32.3764C126.149 33.2893 125.897 34.3901 125.737 35.3667C125.71 35.5379 125.673 35.7426 125.632 35.9742C125.251 38.1356 124.547 42.1629 125.73 43.6631C126.251 44.3209 128.117 44.8982 129.977 45.4117C130.106 45.3143 130.235 45.2304 130.374 45.1767C130.473 45.1398 130.578 45.1868 130.616 45.2808C130.653 45.3748 130.606 45.4822 130.51 45.5191C130.493 45.5258 130.48 45.5359 130.463 45.5426C130.582 45.5761 130.697 45.6063 130.816 45.6399C131.745 45.8916 132.547 46.1098 132.996 46.291C135.165 47.1535 135.641 47.9657 136.222 50.4929C136.178 50.7312 136.287 50.8553 136.358 50.9124C136.436 50.9728 136.535 50.9997 136.633 50.9997C136.725 50.9997 136.813 50.9762 136.885 50.9392C136.997 50.8822 137.058 50.7849 137.051 50.6808C136.953 49.2914 137.126 47.9825 137.269 46.9287C137.436 45.6802 137.555 44.7774 137.167 44.3176C137.014 44.1363 136.79 44.0357 136.501 44.0222C136.205 44.0055 135.994 44.1766 135.838 44.2974C135.794 44.331 135.753 44.3646 135.715 44.3847C135.178 44.6935 134.831 44.3746 134.209 43.7437C133.866 43.3946 133.475 42.9953 132.975 42.7301C132.22 42.3307 131.391 42.4348 130.657 42.5254C130.017 42.6059 129.467 42.6731 129.13 42.3945C128.879 42.1864 128.743 41.7736 128.715 41.1393C128.678 40.307 129.426 39.0149 130.089 37.8738C130.517 37.1354 130.918 36.4407 131.102 35.897C131.707 34.0981 131.724 32.665 131.177 31.6045C131.044 31.6112 130.908 31.6179 130.772 31.628C131.36 32.6046 131.357 33.9739 130.748 35.7795V35.7829Z" fill="#333333"/>
<path d="M130.29 30.5441C130.262 30.5239 130.232 30.5105 130.198 30.5071C130.15 30.5004 130.109 30.5038 130.065 30.4971C130.035 30.6179 130.004 30.7454 129.97 30.8562C130.014 30.8595 130.055 30.8562 130.099 30.8629C130.307 31.0273 130.473 31.2153 130.619 31.4133C130.711 31.3361 130.813 31.2556 130.905 31.1817C130.731 30.9468 130.534 30.7286 130.29 30.5407V30.5441Z" fill="#333333"/>
<path d="M130.623 31.4171C130.674 31.4876 130.728 31.5581 130.772 31.6319C130.912 31.6252 131.044 31.6151 131.177 31.6084C131.099 31.4608 131.007 31.3198 130.908 31.1855C130.816 31.2594 130.718 31.3399 130.623 31.4171Z" fill="#333333"/>
<path d="M130.623 45.2807C130.585 45.1867 130.477 45.1398 130.381 45.1767C130.242 45.2304 130.109 45.3143 129.984 45.4116C130.147 45.4552 130.307 45.5022 130.47 45.5458C130.487 45.5391 130.5 45.5257 130.517 45.5224C130.613 45.4854 130.66 45.378 130.623 45.2841V45.2807Z" fill="#333333"/>
<path d="M136.14 3.07763C135.971 2.81921 135.644 2.31914 135.563 2.11441C135.685 2.20503 135.879 2.38291 136.018 2.5138C136.484 2.95009 136.79 3.21523 137.052 3.21523H137.062C137.307 3.20852 137.531 3.00379 137.708 2.61784C137.749 2.52722 137.789 2.42318 137.823 2.31243C137.823 2.37284 137.823 2.42989 137.823 2.48023C137.827 2.57085 137.898 2.64469 137.99 2.65475C138.085 2.66482 138.167 2.60777 138.19 2.51715C138.333 1.99359 138.561 1.60092 138.711 1.43983C138.724 1.82243 138.605 2.74537 138.401 3.43338H138.789C139.04 2.55071 139.17 1.38613 139.023 1.11428C138.993 1.05387 138.891 0.990106 138.823 0.986749C138.609 0.986749 138.408 1.18476 138.241 1.45661C138.269 0.771956 138.241 0.278602 138.007 0.083946C137.915 0.00675459 137.8 -0.0167384 137.677 0.00675459C137.511 0.0436722 137.388 0.16785 137.296 0.35915C137.262 0.362506 137.228 0.369218 137.194 0.375931C136.715 0.493396 136.81 1.76538 136.98 2.81585C136.803 2.72859 136.47 2.41982 136.28 2.24195C135.838 1.8325 135.573 1.5875 135.348 1.72846C135.277 1.77209 135.229 1.84257 135.212 1.92647C135.151 2.20503 135.416 2.64133 135.831 3.27564C135.862 3.32598 135.899 3.37968 135.933 3.43002H136.372C136.31 3.32934 136.239 3.21859 136.144 3.07427L136.14 3.07763ZM137.762 0.365862C137.813 0.399424 137.84 0.516889 137.857 0.677984C137.834 0.630998 137.806 0.587368 137.772 0.55045C137.738 0.510177 137.704 0.476615 137.664 0.449766C137.694 0.40278 137.725 0.375931 137.762 0.365862ZM137.385 2.30571C137.398 2.00702 137.429 1.32236 137.528 0.849147C137.684 1.1512 137.619 1.90298 137.378 2.44332C137.378 2.39969 137.381 2.3527 137.385 2.30236V2.30571Z" fill="#333333"/>
<path d="M138.139 4.07084C137.347 5.26562 137.028 6.69534 136.715 8.07807L136.61 8.54122C136.032 11.0583 135.437 13.1559 133.509 15.2938C133.257 15.5723 132.955 15.8476 132.632 16.1362C131.976 16.7302 131.296 17.3444 130.993 18.066C130.65 18.8815 130.769 20.0025 130.884 21.0899C130.952 21.7409 131.017 22.3551 130.98 22.8686C130.922 23.6573 130.745 24.4762 130.568 25.2649C130.419 25.9395 130.273 26.6241 130.194 27.3021C130.208 27.2081 130.286 27.1376 130.395 27.1443C130.497 27.1544 130.572 27.2417 130.565 27.339C130.64 26.6879 130.786 26.0234 130.935 25.3421C131.112 24.5366 131.296 23.7076 131.354 22.8921C131.391 22.3484 131.326 21.7175 131.255 21.0496C131.146 20.0092 131.034 18.9352 131.34 18.2069C131.612 17.5592 132.258 16.9752 132.883 16.408C133.213 16.1127 133.523 15.8308 133.788 15.5388C135.777 13.3372 136.385 11.1926 136.973 8.62513L137.079 8.16198C137.381 6.81281 137.697 5.41329 138.449 4.27556C138.575 4.08762 138.69 3.78221 138.789 3.43652H138.401C138.323 3.69495 138.235 3.92316 138.136 4.07419L138.139 4.07084Z" fill="#333333"/>
<path d="M130.579 29.1687C130.647 29.2459 130.636 29.3634 130.558 29.4271C130.483 29.4909 130.375 29.4876 130.303 29.4204C130.3 29.4406 130.296 29.4607 130.29 29.4808C130.422 30.0044 130.647 30.5179 131.014 31.0146C130.952 30.9341 130.966 30.8199 131.048 30.7595C131.129 30.6958 131.248 30.7125 131.309 30.7931C131.309 30.7931 131.309 30.7964 131.313 30.7998C130.592 29.8198 130.443 28.7693 130.528 27.6719C130.483 28.125 130.436 28.5579 130.375 28.9573C130.487 29.0781 130.558 29.1553 130.572 29.1721L130.579 29.1687Z" fill="#333333"/>
<path d="M125.693 13.8814C125.761 13.8512 125.836 13.8613 125.887 13.9049C125.894 13.8478 125.904 13.7941 125.911 13.7371C126.026 12.5222 126.533 10.6461 127.243 10.4816C127.668 10.3809 128.134 10.9582 128.45 11.4616C128.722 11.8912 128.603 12.8544 128.178 13.6968C127.91 14.2304 127.577 14.5996 127.254 14.7238C127.189 14.0761 127.216 13.8646 127.247 13.6263C127.257 13.5357 127.271 13.4417 127.277 13.3276C127.305 13.331 127.335 13.3377 127.362 13.3411C127.461 13.3612 127.6 13.388 127.77 13.3914C127.845 13.3914 127.906 13.3578 127.94 13.2941C127.974 13.2337 127.971 13.1565 127.93 13.0994C127.794 12.9081 127.641 12.3644 127.519 11.9281C127.417 11.5589 127.325 11.2401 127.237 11.0723C127.189 10.9817 127.077 10.9481 126.985 10.9951C126.893 11.0421 126.856 11.1529 126.907 11.2435C126.978 11.3777 127.07 11.7066 127.158 12.0288C127.254 12.3678 127.352 12.7168 127.458 12.982C127.451 12.982 127.441 12.9786 127.434 12.9786C127.288 12.9517 127.148 12.9249 127.033 13.0122C126.931 13.0894 126.91 13.2135 126.903 13.2974C126.897 13.4082 126.886 13.4954 126.873 13.5793C126.839 13.8546 126.805 14.1096 126.903 14.9688C126.914 15.0695 126.995 15.1433 127.107 15.1332C127.617 15.0863 128.127 14.6231 128.511 13.8613C128.916 13.0591 129.168 11.9046 128.766 11.267C128.205 10.3742 127.675 10.0051 127.155 10.1225C126.084 10.3709 125.622 12.7907 125.537 13.7035C125.465 14.4385 125.149 14.9755 124.666 15.1702C124.333 15.3044 123.966 15.2474 123.684 15.0158C123.228 14.6432 123.079 13.925 123.266 13.0524C123.616 11.4281 124.894 8.89752 126.893 9.00828C127.835 9.06198 128.576 9.42444 129.093 10.089C129.783 10.975 130.004 12.3242 129.698 13.7975C129.569 14.4251 129.355 14.8916 129.215 15.2004C129.069 15.5226 128.987 15.6971 129.127 15.838C129.28 15.9891 129.504 15.9052 130.136 15.6367C130.963 15.2876 132.863 13.5793 133.444 12.9517C136.14 10.0453 136.626 7.31007 136.541 3.83981C136.541 3.7492 136.477 3.62166 136.368 3.44043H135.93C136.045 3.61831 136.157 3.79954 136.171 3.84988C136.256 7.22952 135.783 9.88759 133.172 12.7034C132.622 13.2941 130.759 14.9721 129.99 15.2977C129.875 15.348 129.654 15.442 129.494 15.4957C129.514 15.4487 129.538 15.3984 129.559 15.3514C129.705 15.0258 129.929 14.5359 130.068 13.8713C130.395 12.2939 130.15 10.834 129.392 9.86409C128.814 9.12239 127.957 8.69951 126.92 8.64246C126.869 8.64246 126.818 8.6391 126.767 8.6391C124.626 8.6391 123.289 11.2099 122.905 12.9786C122.688 13.9922 122.885 14.8379 123.449 15.3044C123.84 15.6266 124.35 15.7038 124.813 15.5158C125.241 15.3413 125.56 14.9721 125.747 14.4721C125.703 14.3613 125.666 14.2539 125.605 14.1331C125.56 14.0425 125.598 13.9317 125.693 13.8881V13.8814Z" fill="#333333"/>
<path d="M125.618 44.5627C125.078 44.3076 124.462 44.0492 123.8 43.7773C124.31 44.076 124.915 44.3378 125.618 44.5627Z" fill="#333333"/>
<path d="M125.768 44.2236C125.802 44.2404 125.839 44.2572 125.873 44.274C125.856 44.2572 125.833 44.2471 125.809 44.2404C125.795 44.2371 125.782 44.2303 125.768 44.227V44.2236Z" fill="#333333"/>
<path d="M123.405 43.2139C123.599 43.2945 123.789 43.3717 123.973 43.4455C123.239 43.0092 122.715 42.4957 122.409 41.8916C121.671 40.4418 122.263 38.7503 122.783 37.2568C122.858 37.0453 122.929 36.8373 122.997 36.6359C124.167 33.0884 125.285 28.42 123.555 23.755C123.225 22.8656 123.381 21.9729 123.521 21.1842C123.708 20.127 123.881 19.1269 122.552 18.8148C122.038 18.6906 121.321 19.0832 120.495 19.5397C119.591 20.0398 118.564 20.6036 117.925 20.3351C115.902 19.486 115.246 16.6333 115.491 14.1833C115.521 13.8644 115.491 13.4818 115.389 12.9784C115.355 12.8005 115.273 12.5992 115.181 12.4045C115.198 12.4347 115.215 12.4649 115.232 12.4951C115.27 12.5623 115.348 12.5958 115.426 12.5857C115.504 12.5723 115.565 12.5153 115.579 12.4381C115.61 12.2837 115.535 12.0521 115.406 11.6527C115.392 11.6091 115.375 11.5554 115.358 11.5017C115.447 11.7501 115.531 12.0152 115.579 12.1629L115.65 12.3844C115.681 12.4784 115.776 12.5287 115.875 12.5052C115.97 12.4817 116.031 12.3911 116.014 12.2938C116.004 12.2401 115.994 12.1797 115.977 12.1125C116.072 12.3676 116.245 12.4112 116.337 12.4179C116.477 12.4247 116.592 12.3609 116.657 12.2434C116.8 11.9749 116.636 11.401 116.412 10.9278C116.48 10.7197 116.558 10.5788 116.616 10.515C116.687 10.76 116.735 11.495 116.698 12.4784C116.698 12.5421 116.745 12.6428 116.8 12.6797C116.956 12.7804 117.17 12.6797 117.639 12.4448C117.694 12.4179 117.758 12.3877 117.823 12.3542C117.666 12.5354 117.473 12.7368 117.361 12.8307C116.388 13.7302 116.065 14.9887 116.477 16.2909C116.864 17.5126 117.819 18.5328 118.703 18.6604C119.142 18.7241 119.791 18.2543 120.726 17.5294C121.134 17.2139 121.556 16.885 121.77 16.8044C122.028 16.7071 122.501 16.8581 122.956 17.0058C123.494 17.1803 124 17.3414 124.381 17.2038C125.115 16.9387 125.907 16.5729 126.193 15.8748C126.404 15.3646 126.322 14.7404 125.945 13.9685C125.931 13.9416 125.914 13.9215 125.89 13.9047C125.86 14.1061 125.812 14.294 125.751 14.4685C125.948 14.982 125.989 15.4016 125.85 15.7372C125.666 16.1869 125.19 16.5192 124.255 16.8581C123.993 16.9521 123.528 16.8011 123.075 16.6534C122.531 16.4789 122.021 16.3111 121.637 16.4587C121.369 16.5594 120.964 16.8749 120.498 17.2374C119.934 17.677 119.081 18.3348 118.761 18.2946C118.023 18.1872 117.177 17.2575 116.837 16.1802C116.623 15.4989 116.436 14.19 117.612 13.1026C117.622 13.0925 118.578 12.2602 118.401 11.9514C118.265 11.7165 117.969 11.8675 117.473 12.1125C117.354 12.1729 117.194 12.2501 117.075 12.3005C117.14 10.1291 116.844 10.1156 116.681 10.1056C116.473 10.1123 116.3 10.27 116.177 10.5049C116.137 10.4412 116.096 10.3841 116.058 10.3338C115.994 10.2532 115.8 10.0082 115.559 10.072C115.365 10.119 115.304 10.3103 115.324 10.6593C115.239 10.5855 115.151 10.562 115.045 10.5888C114.974 10.609 114.916 10.656 114.879 10.7231C114.794 10.8775 114.841 11.1191 114.954 11.4782C114.773 11.3138 114.678 11.3507 114.62 11.3708C114.552 11.3943 114.501 11.4413 114.474 11.5084C114.406 11.6695 114.501 11.8742 114.702 12.2837C114.828 12.5421 114.974 12.8375 115.018 13.0556C115.113 13.5255 115.144 13.8712 115.113 14.1531C114.875 16.5494 115.426 19.6941 117.775 20.6808C118.584 21.0231 119.649 20.4358 120.675 19.8686C121.369 19.486 122.083 19.09 122.463 19.1806C123.412 19.4054 123.354 19.9726 123.15 21.1305C123.011 21.9225 122.837 22.9093 123.201 23.8926C124.894 28.4503 123.789 33.0415 122.64 36.5319C122.576 36.7299 122.504 36.9346 122.429 37.146C121.913 38.6294 121.267 40.4787 122.076 42.0661C122.239 42.3883 122.463 42.6837 122.732 42.9622C122.899 43.0226 123.065 43.0831 123.232 43.1502L123.405 43.2206V43.2139ZM116.354 12.0488C116.32 12.0286 116.276 11.891 116.279 11.6494C116.347 11.8944 116.347 12.0286 116.354 12.0488ZM116.007 10.958C115.95 11.1795 115.916 11.401 115.909 11.5588C115.902 11.6695 115.905 11.7702 115.912 11.8541L115.905 11.8306C115.831 11.495 115.674 10.7701 115.688 10.4814C115.766 10.5586 115.885 10.7231 116.004 10.958H116.007Z" fill="#333333"/>
<path d="M125.751 44.5962C125.829 44.5962 125.904 44.5459 125.928 44.4687C125.951 44.3949 125.928 44.3177 125.87 44.2707C125.836 44.2539 125.798 44.2371 125.764 44.2203C125.064 43.9988 124.469 43.7404 123.973 43.4451C123.786 43.3679 123.599 43.2907 123.405 43.2135L123.232 43.143C123.065 43.0759 122.899 43.0155 122.732 42.9551C123.024 43.2538 123.378 43.529 123.799 43.7773C124.462 44.0492 125.078 44.3076 125.618 44.5627C125.645 44.5727 125.669 44.5795 125.696 44.5895C125.713 44.5962 125.734 44.5996 125.754 44.5996L125.751 44.5962Z" fill="#333333"/>
<path d="M125.693 13.8811C125.601 13.9248 125.561 14.0355 125.605 14.1261C125.663 14.247 125.703 14.3544 125.748 14.4651C125.812 14.294 125.86 14.106 125.887 13.9013C125.833 13.861 125.758 13.8476 125.693 13.8778V13.8811Z" fill="#333333"/>
<path d="M101.124 35.5349C100.382 35.0651 99.7263 35.0382 99.1348 35.0181C98.4582 34.998 97.8735 34.9778 97.2581 34.2764C97.2479 34.263 97.1425 34.1488 96.9862 34.0683C96.7482 33.9475 96.5102 33.971 96.3198 34.1354C96.2246 34.216 96.092 34.5012 95.9968 34.7261C95.956 34.8201 96.0037 34.9275 96.0988 34.9677C96.194 35.008 96.3028 34.9644 96.3436 34.8704C96.4218 34.6858 96.534 34.4543 96.568 34.414C96.7414 34.2663 96.9556 34.4945 96.9794 34.5214C97.7035 35.3436 98.4276 35.3638 99.128 35.3873C99.8045 35.4074 100.505 35.4309 101.334 36.1458C101.334 36.1458 101.338 36.1458 101.341 36.1458C101.314 36.1223 101.29 36.0954 101.277 36.0585C101.226 35.8907 101.175 35.7128 101.124 35.5316V35.5349Z" fill="#333333"/>
<path d="M101.597 36.1297C101.597 36.1297 101.604 36.1193 101.607 36.1123C101.6 36.1227 101.593 36.1297 101.586 36.1401C101.586 36.1401 101.593 36.1367 101.597 36.1332V36.1297Z" fill="#333333"/>
<path d="M101.124 35.535C101.175 35.7163 101.226 35.8941 101.277 36.0619C101.287 36.0989 101.311 36.1291 101.341 36.1492C101.375 36.1761 101.413 36.1928 101.457 36.1928C101.477 36.1928 101.501 36.1861 101.521 36.1794C101.531 36.1761 101.542 36.1693 101.552 36.1626C101.565 36.1559 101.576 36.1459 101.586 36.1358C101.593 36.1291 101.599 36.119 101.606 36.1089C101.613 36.0989 101.62 36.0888 101.627 36.0754C101.63 36.0653 101.633 36.0552 101.637 36.0418C101.637 36.0317 101.64 36.0183 101.64 36.0082C101.64 35.9948 101.64 35.9848 101.64 35.9713C101.633 35.9311 101.616 35.8941 101.582 35.8639C101.426 35.7297 101.277 35.6256 101.127 35.5283L101.124 35.535Z" fill="#333333"/>
<path d="M104.652 31.7962C104.646 31.7492 104.639 31.6989 104.629 31.6553C104.629 31.6586 104.629 31.662 104.629 31.6653C104.629 31.6888 104.639 31.7392 104.652 31.7996V31.7962Z" fill="#333333"/>
<path d="M104.262 31.699C104.517 33.0985 104.581 35.0954 104.557 36.4949C104.554 36.6963 104.564 36.9245 104.574 37.1661C104.615 38.0891 104.663 39.1328 104.003 39.5456C103.633 39.7806 102.181 38.8207 101.562 38.4113C101.365 38.2804 101.198 38.1696 101.083 38.1025C100.896 37.9917 100.692 37.8609 100.478 37.7199C99.6278 37.1728 98.6691 36.5486 97.8124 36.6291C96.6803 36.7332 96.1329 37.3675 95.5686 38.4213C95.521 38.5119 95.555 38.6227 95.6468 38.6697C95.7386 38.7167 95.8507 38.6831 95.8983 38.5925C96.5001 37.4648 96.976 37.0789 97.8464 36.995C98.5773 36.9312 99.5156 37.5387 100.274 38.0253C100.495 38.1663 100.702 38.3005 100.892 38.4146C101.001 38.4784 101.161 38.5858 101.351 38.71C101.515 38.8174 101.674 38.9214 101.834 39.0254C101.831 38.9986 101.827 38.9751 101.821 38.9449C101.807 38.8442 101.875 38.7502 101.977 38.7368C102.082 38.72 102.174 38.7905 102.188 38.8945C102.212 39.0624 102.235 39.1832 102.252 39.2906C102.881 39.6698 103.446 39.9417 103.854 39.9417C103.983 39.9417 104.098 39.9148 104.194 39.8544C105.033 39.3275 104.979 38.1159 104.938 37.146C104.928 36.9144 104.918 36.6929 104.921 36.4983C104.935 35.6928 104.921 34.6893 104.857 33.7127C104.52 32.7092 104.268 31.897 104.255 31.6855C104.255 31.6889 104.255 31.6923 104.255 31.6956L104.262 31.699Z" fill="#333333"/>
<path d="M101.98 38.743C101.878 38.7565 101.807 38.8504 101.824 38.9511C101.827 38.9813 101.831 39.0048 101.838 39.0317C101.98 39.1223 102.123 39.2095 102.259 39.2935C102.239 39.1861 102.218 39.0652 102.195 38.8974C102.181 38.7967 102.086 38.7229 101.984 38.7397L101.98 38.743Z" fill="#333333"/>
<path d="M149.43 3.91688C149.43 4.01756 149.511 4.10147 149.613 4.10482C149.715 4.10482 149.8 4.02428 149.804 3.92359C149.804 3.74236 149.804 3.58462 149.8 3.43359H149.362C149.403 3.56784 149.433 3.72558 149.43 3.91688Z" fill="#333333"/>
<path d="M151.925 2.01327C151.905 1.99649 151.881 1.98642 151.854 1.97971C151.599 1.92265 151.388 2.20457 151.109 2.8221C151.092 2.3321 151.021 1.86895 150.912 1.71122C150.844 1.60717 150.752 1.59375 150.705 1.59375C150.419 1.59375 150.239 2.03341 150.123 2.53347C150.086 2.44621 150.042 2.37238 149.991 2.32203C149.909 2.24149 149.828 2.22471 149.77 2.22471C149.678 2.22471 149.596 2.25827 149.535 2.31868C149.437 2.41936 149.409 2.57039 149.406 2.79861C149.399 2.79189 149.389 2.78854 149.382 2.78183C149.277 2.71806 149.161 2.7147 149.059 2.7684C148.998 2.79861 148.961 2.86237 148.961 2.9295C148.961 3.10402 148.954 3.27182 148.944 3.43292H149.314C149.314 3.39264 149.321 3.35573 149.324 3.3121C149.338 3.34566 149.348 3.39264 149.358 3.43292H149.797C149.797 3.34901 149.794 3.26175 149.79 3.18456C149.783 2.97984 149.773 2.75498 149.773 2.65094C149.834 2.77847 149.906 3.05703 149.936 3.43292H150.354C150.409 2.87244 150.548 2.28512 150.65 2.05354C150.718 2.33546 150.759 2.94292 150.725 3.43292H151.252C151.368 3.15436 151.51 2.8221 151.633 2.59388C151.599 2.79189 151.534 3.07381 151.439 3.43292H151.823C152.116 2.28847 152.051 2.11395 151.918 2.01327H151.925Z" fill="#333333"/>
<path d="M150.627 3.99071C150.586 4.08469 150.63 4.19208 150.725 4.23236C150.817 4.27263 150.929 4.229 150.97 4.13503C151.014 4.03099 151.065 3.90345 151.119 3.7625C151.153 3.67524 151.201 3.55777 151.252 3.43359H150.725C150.708 3.65846 150.678 3.86318 150.623 3.99071H150.627Z" fill="#333333"/>
<path d="M149.957 3.87996C149.957 3.98065 150.038 4.06455 150.144 4.06455C150.246 4.06455 150.331 3.984 150.331 3.87996C150.331 3.739 150.341 3.58798 150.358 3.43359H149.94C149.953 3.5712 149.96 3.71887 149.96 3.87661L149.957 3.87996Z" fill="#333333"/>
<path d="M131.021 31.0171C131.021 31.0171 131.045 31.0512 131.059 31.0649C131.062 31.0649 131.065 31.058 131.069 31.0546C131.052 31.0444 131.034 31.0307 131.021 31.0137V31.0171Z" fill="#333333"/>
<path d="M146.605 8.64849C144.731 10.8434 143.253 12.5752 144.33 15.5924C144.541 16.1797 144.803 16.663 145.058 17.1295C145.507 17.9517 145.894 18.6632 145.908 19.754C145.915 20.2977 145.935 20.9018 145.952 21.5395C146.034 24.362 146.136 27.8759 145.571 30.2084C145.289 31.373 144.769 32.4771 144.269 33.5444C143.423 35.3399 142.552 37.1959 142.794 39.3807C142.008 38.9612 141.284 39.2666 140.584 39.5552C139.724 39.9144 138.908 40.2533 137.905 39.3136C136.358 37.8671 134.828 35.6923 133.349 33.5914C132.635 32.5778 131.962 31.6213 131.32 30.7991C131.371 30.8729 131.361 30.9669 131.299 31.0306C131.361 31.2219 131.415 31.3931 131.479 31.5911C131.473 31.5911 131.466 31.5911 131.456 31.5911C131.962 32.2691 132.489 33.0175 133.04 33.7995C134.529 35.9172 136.069 38.1054 137.647 39.5787C138.826 40.6829 139.836 40.2634 140.73 39.8909C141.512 39.5653 142.185 39.2834 142.957 39.9311C143.596 40.4681 144.279 40.7467 144.908 40.7467C145.245 40.7467 145.568 40.6661 145.86 40.505C146.639 40.0721 147.03 39.1391 146.86 38.1289C146.802 37.7765 146.605 37.4711 146.319 37.2898C145.962 37.0616 145.36 36.8703 144.538 37.2764C143.98 37.5516 143.45 38.4108 143.137 39.0015C143.021 37.0683 143.797 35.4272 144.609 33.6954C145.119 32.6114 145.646 31.4904 145.938 30.2923C146.513 27.9128 146.411 24.372 146.329 21.526C146.312 20.8917 146.295 20.291 146.285 19.7473C146.268 18.5659 145.84 17.7806 145.388 16.9516C145.139 16.4985 144.884 16.0253 144.684 15.4648C143.678 12.649 145.024 11.0683 146.9 8.87C148.386 7.12816 149.192 5.75885 149.318 3.42969H148.947C148.825 5.65481 148.073 6.92008 146.605 8.64514V8.64849ZM144.704 37.6087C145.371 37.2831 145.84 37.4241 146.115 37.602C146.309 37.7261 146.448 37.9477 146.489 38.1926C146.632 39.0451 146.312 39.8304 145.673 40.1862C144.976 40.5755 144.086 40.3876 143.222 39.6727C143.463 39.1391 144.116 37.8973 144.704 37.6087Z" fill="#333333"/>
<path d="M151.221 15.2573C151.238 15.1566 151.33 15.0928 151.435 15.1063C151.534 15.1231 151.602 15.217 151.588 15.3144C152.608 14.2001 153.417 12.3609 153.417 11.6226C153.417 10.3607 152.846 9.36726 151.959 9.09877C151.187 8.86384 150.358 9.25315 149.742 10.1425C149.039 11.1628 149.226 12.324 149.392 13.3443C149.545 14.284 149.688 15.17 149.151 15.8312C148.869 16.1769 148.522 16.2876 148.117 16.15C147.257 15.858 146.37 14.5525 146.353 13.5591C146.333 12.2535 146.927 11.1561 147.825 9.91431L148.236 9.34041C149.644 7.38042 150.351 6.39372 152.051 4.95728C152.469 4.57133 152.605 4.34982 152.537 4.16859C152.52 4.1216 152.459 4.00749 152.282 3.99743C152.119 3.984 151.857 4.08133 151.616 4.21558C151.701 3.91352 151.769 3.65846 151.826 3.43359H151.442C151.357 3.75578 151.252 4.13503 151.123 4.58475L151.089 4.70222C151.061 4.79283 151.109 4.89016 151.201 4.92372C151.289 4.95728 151.391 4.92037 151.435 4.83311C151.51 4.68544 151.843 4.49078 152.071 4.40352C152.013 4.47064 151.928 4.56126 151.803 4.67872C150.076 6.142 149.362 7.13878 147.934 9.12226L147.522 9.69616C146.71 10.8238 145.962 12.0723 145.982 13.5624C145.999 14.7035 146.999 16.1567 147.998 16.4957C148.553 16.6837 149.062 16.5259 149.443 16.0594C150.082 15.2707 149.919 14.2605 149.759 13.2839C149.596 12.2804 149.43 11.2467 150.048 10.3473C150.575 9.58877 151.228 9.25651 151.847 9.44781C152.564 9.66596 153.043 10.5386 153.04 11.6192C153.04 12.2838 152.112 14.3981 150.99 15.3781C150.902 15.4553 150.817 15.4721 150.728 15.4352C150.575 15.3681 150.453 15.1566 150.446 14.9418C150.443 14.7807 150.497 14.4787 150.915 14.2706C150.973 14.2437 151.01 14.1867 151.017 14.1263C151.024 14.0625 150.997 14.0021 150.949 13.9618L150.524 13.6296L150.878 13.3409C150.925 13.304 150.949 13.2436 150.946 13.1832C150.939 13.1228 150.905 13.0691 150.851 13.0389L150.399 12.7905C150.732 12.2334 151.473 10.7601 151.554 10.0788C151.565 9.97808 151.493 9.88746 151.391 9.87404C151.286 9.87068 151.197 9.93445 151.184 10.0351C151.106 10.7299 150.184 12.4751 149.987 12.7469C149.957 12.7905 149.943 12.8442 149.957 12.8946C149.967 12.9449 150.001 12.9919 150.048 13.0154L150.433 13.2268L150.11 13.4886C150.065 13.5255 150.042 13.5759 150.042 13.6329C150.042 13.6866 150.069 13.7403 150.113 13.7739L150.511 14.086C150.222 14.3042 150.062 14.6096 150.072 14.9485C150.082 15.3076 150.29 15.6466 150.579 15.7708C150.796 15.8648 151.027 15.8211 151.221 15.6634C151.197 15.5124 151.194 15.3681 151.214 15.2539L151.221 15.2573Z" fill="#333333"/>
<path d="M131.299 31.0312C131.299 31.0312 131.286 31.048 131.275 31.0547C131.241 31.0782 131.204 31.0883 131.167 31.0883C131.133 31.0883 131.099 31.0749 131.068 31.0547C131.065 31.0547 131.061 31.0615 131.058 31.0648C131.19 31.236 131.323 31.4105 131.459 31.5917C131.466 31.5917 131.473 31.5917 131.483 31.5917C131.418 31.3937 131.364 31.2192 131.303 31.0312H131.299Z" fill="#333333"/>
<path d="M131.054 30.7591C130.973 30.8195 130.959 30.9336 131.02 31.0142C131.034 31.031 131.051 31.0444 131.068 31.0545C131.133 31.0041 131.19 30.9538 131.258 30.9001C131.272 30.9471 131.286 30.984 131.299 31.0276C131.36 30.9638 131.371 30.8699 131.32 30.796C131.32 30.796 131.32 30.7927 131.316 30.7893C131.255 30.7088 131.136 30.692 131.054 30.7558V30.7591Z" fill="#333333"/>
<path d="M131.068 31.0543C131.099 31.0745 131.133 31.0879 131.167 31.0879C131.204 31.0879 131.245 31.0778 131.276 31.0543C131.286 31.0476 131.289 31.0376 131.299 31.0309C131.286 30.9872 131.272 30.947 131.258 30.9033C131.191 30.957 131.133 31.0074 131.068 31.0577V31.0543Z" fill="#333333"/>
<path d="M155.512 3.00342C155.42 2.74164 155.304 2.5 155.097 2.5C155.019 2.5 154.944 2.53021 154.886 2.58726C154.75 2.72486 154.72 2.99671 154.716 3.43301H155.09C155.09 3.26856 155.097 3.10746 155.114 2.99335C155.158 3.10411 155.209 3.25849 155.257 3.43301H155.641C155.573 3.19137 155.515 3.00678 155.515 3.00342H155.512Z" fill="#333333"/>
<path d="M153.846 4.19166C153.513 3.49693 153.445 3.40296 153.261 3.47009C153.081 3.5305 153.129 3.73186 153.156 3.85269C153.193 4.02049 153.234 4.17488 153.268 4.31919C153.38 4.77563 153.482 5.17165 153.414 5.31932C153.363 5.43007 153.112 5.51398 152.928 5.57439C152.7 5.65158 152.5 5.71535 152.432 5.87644C152.408 5.93014 152.391 6.01404 152.435 6.11473C152.462 6.17178 152.517 6.21206 152.581 6.22213C153.319 6.32281 153.829 6.58123 154.142 7.02089C154.591 7.64849 154.652 8.6654 154.325 10.2227L154.295 10.3703C153.917 12.1793 153.356 14.8877 151.728 16.0389C151.619 15.8408 151.551 15.5254 151.585 15.324C151.585 15.324 151.585 15.3206 151.585 15.3173C151.473 15.4415 151.357 15.5556 151.242 15.6596C151.235 15.663 151.232 15.6663 151.225 15.6697C151.269 15.9482 151.381 16.2503 151.548 16.4181C151.609 16.4819 151.708 16.4919 151.782 16.4449C153.656 15.2703 154.261 12.3639 154.662 10.4408L154.693 10.2931C155.039 8.63184 154.961 7.52095 154.448 6.80609C154.135 6.3698 153.669 6.08117 153.033 5.93014C153.04 5.93014 153.044 5.92678 153.05 5.92678C153.316 5.83952 153.642 5.73213 153.761 5.47035C153.822 5.33275 153.826 5.16158 153.792 4.94008C153.965 5.29247 153.982 5.29583 154.091 5.30254C154.149 5.30925 154.227 5.27234 154.261 5.21528C154.281 5.18172 154.291 5.1448 154.288 5.10788C154.285 5.02398 154.274 4.89645 154.261 4.74542C154.237 4.46015 154.189 3.85604 154.189 3.43652H153.815C153.815 3.63118 153.826 3.87618 153.846 4.19166Z" fill="#333333"/>
<path d="M154.716 3.44702C154.716 3.44702 154.716 3.43695 154.713 3.43359H154.318C154.403 3.69873 154.475 4.04441 154.512 4.22229C154.567 4.48071 154.618 4.72571 154.679 4.9103C154.706 4.99085 154.788 5.05126 154.866 5.03783C154.951 5.03448 155.022 4.97407 155.039 4.89352C155.104 4.60489 155.097 4.19544 155.093 3.79941C155.093 3.69202 155.093 3.56448 155.093 3.43695H154.72C154.72 3.43695 154.72 3.44366 154.72 3.45037L154.716 3.44702Z" fill="#333333"/>
<path d="M154.125 2.7016C154.067 2.7016 153.975 2.73516 153.938 2.77543C153.856 2.86269 153.815 3.04728 153.819 3.42988H154.193C154.193 3.31577 154.193 3.21173 154.203 3.13454C154.244 3.19831 154.285 3.3057 154.325 3.42988H154.72C154.597 3.00701 154.434 2.69824 154.132 2.69824L154.125 2.7016Z" fill="#333333"/>
<path d="M156.314 3.33578C156.229 3.319 156.165 3.33578 156.076 3.43311H156.443C156.403 3.36934 156.348 3.34249 156.314 3.33578Z" fill="#333333"/>
<path d="M163.171 35.7197C162.413 35.5586 161.89 35.6291 161.563 35.9446C160.982 36.5051 161.21 37.6864 161.454 38.9383C161.536 39.3678 161.621 39.8075 161.675 40.2304C161.675 40.2438 161.669 40.2539 161.669 40.2606C161.638 40.2539 161.594 40.2337 161.567 40.2203L161.505 40.1935C160.88 39.9485 160.611 39.2638 160.346 38.5993C160.078 37.9214 159.799 37.2166 159.129 37.0085C158.486 36.8071 157.609 37.0924 156.362 37.9079L155.988 38.1529C154.315 39.2571 149.868 42.1837 148.44 41.4453C147.968 41.0291 147.614 34.4511 147.791 33.0818C147.975 31.689 149.413 30.0713 150.531 29.6115C150.824 29.4907 151.232 29.3934 151.514 29.6048C151.752 29.7861 152.003 30.2593 151.837 31.4977C151.85 31.397 151.939 31.3232 152.047 31.3399C152.149 31.3534 152.221 31.444 152.211 31.548C152.211 31.5648 152.204 31.5816 152.204 31.5984C153.407 30.1754 152.795 28.3865 152.204 26.6548C151.881 25.715 151.575 24.8257 151.558 24.0168C151.517 22.0199 152.153 20.1975 153.679 17.9254C155.434 15.3144 155.869 13.2839 156.052 10.4513C156.086 9.91096 156.052 9.33034 156.012 8.71281C155.954 7.76973 155.893 6.79645 156.11 6.00776C156.294 5.33988 156.491 4.20886 156.491 3.59133C156.491 3.5175 156.474 3.47051 156.45 3.43359H156.083C156.005 3.52421 155.913 3.68195 155.774 3.95715C155.736 3.77592 155.689 3.59133 155.644 3.43359H155.26C155.379 3.86654 155.488 4.40016 155.491 4.5579C155.485 4.60825 155.495 4.65859 155.529 4.70222C155.593 4.78276 155.709 4.79619 155.791 4.73242C155.828 4.70222 155.831 4.69886 155.899 4.54783C155.964 4.40688 156.022 4.28605 156.073 4.18873C156.008 4.75927 155.876 5.45064 155.746 5.91379C155.515 6.75954 155.576 7.76302 155.638 8.73631C155.675 9.34041 155.709 9.91096 155.678 10.4278C155.495 13.2604 155.087 15.1667 153.367 17.7207C152.255 19.3719 151.126 21.4125 151.181 24.0236C151.198 24.8894 151.527 25.8459 151.844 26.7722C152.33 28.1852 152.829 29.6417 152.262 30.8298C152.268 30.0915 152.092 29.5847 151.738 29.3162C151.402 29.0645 150.936 29.0477 150.385 29.2726C149.151 29.7793 147.621 31.4977 147.417 33.0348C147.298 33.9443 147.468 41.358 148.253 41.7675C148.461 41.8749 148.712 41.9252 148.995 41.9252C150.936 41.9252 154.403 39.6397 156.192 38.4617L156.566 38.2167C157.698 37.4783 158.5 37.1998 159.013 37.3609C159.517 37.5186 159.748 38.1093 159.996 38.7369C160.275 39.4383 160.588 40.2371 161.363 40.5391L161.41 40.5593C161.519 40.6063 161.686 40.6801 161.845 40.5928C161.951 40.5358 162.019 40.425 162.043 40.2639C162.043 40.2472 162.043 40.2304 162.043 40.2136C161.988 39.7739 161.9 39.3142 161.815 38.8711C161.594 37.72 161.383 36.6326 161.818 36.2097C162.043 35.9916 162.471 35.9513 163.083 36.0822C164.263 36.3339 166.02 37.0219 168.305 38.1093V37.6998C166.071 36.6427 164.341 35.9714 163.161 35.7197H163.171Z" fill="#333333"/>
<path d="M170.056 38.7564C170.103 38.6658 170.066 38.555 169.974 38.508C169.389 38.2161 168.842 37.9509 168.315 37.6992V38.1087C168.791 38.3369 169.28 38.5752 169.804 38.837C169.896 38.8839 170.008 38.847 170.056 38.7564Z" fill="#333333"/>
<path d="M151.589 15.3144C151.602 15.217 151.534 15.1231 151.436 15.1063C151.33 15.0928 151.238 15.1566 151.221 15.2573C151.201 15.3748 151.204 15.5191 151.228 15.6667C151.235 15.6634 151.238 15.66 151.245 15.6567C151.361 15.5526 151.476 15.4385 151.589 15.3144Z" fill="#333333"/>
<path d="M151.946 31.6923C151.871 31.6587 151.827 31.5815 151.837 31.501C151.769 32.0312 151.687 32.5615 151.602 33.0951C151.385 34.5215 151.157 35.9949 151.171 37.4481C151.171 37.5085 151.201 37.5655 151.252 37.5991C151.283 37.6192 151.32 37.6293 151.357 37.6293C151.381 37.6293 151.402 37.6259 151.425 37.6159C151.674 37.5219 151.949 37.3239 152.269 37.099C152.966 36.6023 153.836 35.9848 155.026 35.9344C156.811 35.8573 158.677 35.4344 159.473 35.2531C159.66 35.2095 159.792 35.1793 159.86 35.1692C159.962 35.1525 160.03 35.0551 160.013 34.9545C159.996 34.8538 159.904 34.79 159.795 34.8034C159.724 34.8168 159.585 34.8471 159.388 34.8907C158.602 35.0686 156.76 35.4881 155.009 35.5619C153.707 35.6156 152.748 36.2969 152.048 36.7936C151.864 36.9245 151.694 37.0453 151.544 37.1359C151.561 35.8069 151.769 34.4544 151.969 33.1455C152.051 32.6253 152.129 32.1084 152.197 31.5916C152.184 31.6084 152.173 31.6218 152.16 31.6386C152.105 31.699 152.017 31.7191 151.942 31.6856L151.946 31.6923Z" fill="#333333"/>
<path d="M152.044 31.3393C151.939 31.3259 151.847 31.3963 151.833 31.497C151.823 31.5776 151.867 31.6548 151.942 31.6883C152.017 31.7219 152.105 31.7018 152.16 31.6413C152.173 31.6246 152.183 31.6111 152.197 31.5944C152.197 31.5776 152.204 31.5608 152.204 31.544C152.217 31.4433 152.146 31.3494 152.041 31.3359L152.044 31.3393Z" fill="#333333"/>
<path d="M104.336 17.6671C104.234 17.6637 104.153 17.5764 104.156 17.4758C104.156 17.4556 104.163 17.4388 104.17 17.4187C104.085 17.3784 103.986 17.4019 103.932 17.4825C103.874 17.5664 103.901 17.6805 103.986 17.7375C104.068 17.7912 104.207 17.8416 104.37 17.8416C104.534 17.8416 104.724 17.7879 104.904 17.6234C104.911 17.6167 104.907 17.6067 104.914 17.6033C104.897 17.61 104.88 17.6201 104.86 17.6234C104.731 17.6369 104.421 17.6671 104.336 17.6671Z" fill="#333333"/>
<path d="M104.914 17.3647C104.843 17.2908 104.727 17.2875 104.649 17.3546C104.425 17.5593 104.214 17.4418 104.187 17.4284C104.18 17.4251 104.173 17.4251 104.166 17.4217C104.159 17.4385 104.153 17.4586 104.153 17.4788C104.149 17.5794 104.227 17.6667 104.333 17.6701C104.418 17.6701 104.727 17.6399 104.856 17.6264C104.877 17.6264 104.894 17.6164 104.911 17.6063C104.969 17.5358 104.975 17.4351 104.911 17.368L104.914 17.3647Z" fill="#333333"/>
<path d="M106.516 38.4109L106.883 39.8406C106.903 39.9245 106.981 39.9782 107.063 39.9782C107.08 39.9782 107.094 39.9782 107.111 39.9715C107.209 39.948 107.27 39.8473 107.247 39.7466L106.873 38.3001C106.07 36.0918 104.833 32.5678 104.653 31.7959C104.751 32.3765 104.816 33.0377 104.86 33.7156C105.445 35.4608 106.278 37.7665 106.512 38.4109H106.516Z" fill="#333333"/>
<path d="M105.819 29.4901C105.706 29.5807 105.584 29.668 105.462 29.7586C104.897 30.1647 104.255 30.6211 104.258 31.6649C104.258 31.6682 104.258 31.6817 104.258 31.685C104.248 31.5877 104.313 31.5004 104.408 31.4803C104.51 31.4635 104.605 31.5273 104.625 31.628C104.625 31.6347 104.625 31.6448 104.629 31.6515C104.629 30.8024 105.139 30.4399 105.679 30.0539C105.808 29.96 105.938 29.8694 106.057 29.772C106.927 29.0605 107.858 29.8022 108.039 29.96C107.984 29.7687 107.93 29.5807 107.882 29.3928C107.338 29.084 106.539 28.8961 105.819 29.4868V29.4901Z" fill="#333333"/>
<path d="M108.338 29.9872C108.409 29.9133 108.406 29.7959 108.334 29.7254C108.222 29.618 108.069 29.5005 107.885 29.3965C107.936 29.5844 107.987 29.7724 108.042 29.9637C108.059 29.9771 108.069 29.9905 108.072 29.9939C108.147 30.0644 108.266 30.061 108.338 29.9872Z" fill="#333333"/>
<path d="M104.411 31.4836C104.313 31.5003 104.248 31.591 104.262 31.6883C104.275 31.8997 104.527 32.7153 104.863 33.7154C104.819 33.0375 104.751 32.3763 104.656 31.7957C104.642 31.7353 104.632 31.6883 104.632 31.6614C104.632 31.6581 104.632 31.6547 104.632 31.6514C104.632 31.6447 104.632 31.6346 104.629 31.6279C104.612 31.5272 104.513 31.4634 104.411 31.4802V31.4836Z" fill="#333333"/>
<path d="M126.288 31.4473C126.278 31.4238 125.241 29.0443 126.275 27.4266C126.421 27.1951 126.614 27.0776 126.863 27.0575C127.784 27.0004 129.222 28.2791 129.984 29.0745C129.899 29.6149 129.8 30.078 129.695 30.474C129.814 30.474 129.939 30.4875 130.065 30.5009C130.147 30.1888 130.225 29.8531 130.29 29.484C130.13 28.8497 130.109 28.1952 130.171 27.5374C130.133 27.9234 130.096 28.2858 130.052 28.6181C129.293 27.8629 127.883 26.6279 126.835 26.695C126.465 26.7219 126.169 26.9031 125.958 27.2353C124.819 29.0175 125.901 31.4977 125.962 31.6319C125.986 31.6655 126.241 32.0279 126.631 32.3837C126.693 32.2696 126.757 32.1622 126.825 32.0548C126.502 31.7494 126.292 31.454 126.288 31.454V31.4473Z" fill="#333333"/>
<path d="M128.399 33.0212C129.066 32.8467 129.593 32.1218 129.973 30.8565C129.848 30.8464 129.722 30.833 129.603 30.833C129.603 30.833 129.596 30.833 129.593 30.833C129.198 32.1083 128.712 32.5547 128.301 32.6621C127.889 32.7729 127.461 32.5614 127.107 32.2896C127.046 32.3936 126.985 32.501 126.927 32.6151C127.264 32.8635 127.658 33.0615 128.076 33.0615C128.182 33.0615 128.291 33.0481 128.399 33.0212Z" fill="#333333"/>
<path d="M130.565 27.3422C130.565 27.3422 130.565 27.3422 130.565 27.3389C130.551 27.4496 130.541 27.557 130.534 27.6678C130.544 27.5604 130.558 27.4563 130.568 27.3422H130.565Z" fill="#333333"/>
<path d="M130.184 27.4001C130.184 27.3665 130.191 27.3363 130.194 27.3027C130.194 27.3061 130.194 27.3094 130.194 27.3128C130.194 27.343 130.187 27.3699 130.187 27.3967L130.184 27.4001Z" fill="#333333"/>
<path d="M126.825 32.0508C126.757 32.1582 126.693 32.2656 126.631 32.3797C126.723 32.4636 126.822 32.5441 126.924 32.6213C126.982 32.5072 127.043 32.3965 127.104 32.2958C127.002 32.2186 126.91 32.1347 126.822 32.0541L126.825 32.0508Z" fill="#333333"/>
<path d="M129.593 30.8361C129.593 30.8361 129.599 30.8361 129.603 30.8361C129.722 30.8361 129.848 30.8462 129.973 30.8596C130.007 30.7488 130.038 30.6213 130.068 30.5005C129.943 30.4871 129.817 30.477 129.698 30.4736C129.664 30.6012 129.63 30.722 129.593 30.8361Z" fill="#333333"/>
<path d="M130.395 27.145C130.286 27.1383 130.208 27.2087 130.194 27.3027C130.191 27.3363 130.187 27.3665 130.184 27.4C130.181 27.4437 130.174 27.4907 130.17 27.5343C130.113 28.1921 130.13 28.8432 130.289 29.4809C130.293 29.4607 130.296 29.4406 130.303 29.4204C130.371 29.4876 130.483 29.4909 130.558 29.4272C130.636 29.36 130.643 29.2426 130.578 29.1687C130.565 29.152 130.493 29.0714 130.381 28.9539C130.442 28.5579 130.49 28.125 130.534 27.6685C130.544 27.5611 130.555 27.4504 130.565 27.3396C130.572 27.2389 130.497 27.1517 130.395 27.145Z" fill="#333333"/>
</g>
<defs>
<clipPath id="clip0_137_291">
<rect width="207" height="51" fill="white"/>
</clipPath>
</defs>
</svg>
